<svg width="96" height="49" viewBox="0 0 96 49" fill="none" xmlns="http://www.w3.org/2000/svg">
<path d="M52.7264 2.71611C52.9233 2.67917 53.1019 2.58242 53.2349 2.44066C53.3679 2.29889 53.448 2.11993 53.463 1.93115C53.463 1.47962 52.9719 1.10913 52.3949 1.10913H52.1126L51.6952 0.43532C51.6066 0.308749 51.4879 0.203459 51.3485 0.127874C51.2091 0.0522888 51.0529 0.0085015 50.8923 0H44.9433C44.7827 0.0085015 44.6265 0.0522888 44.4871 0.127874C44.3477 0.203459 44.229 0.308749 44.1404 0.43532L43.7255 1.10913H43.4308C42.844 1.10913 42.3628 1.47962 42.3628 1.93115C42.3786 2.12454 42.4627 2.30736 42.6015 2.45047C42.7403 2.59358 42.926 2.68873 43.1288 2.72074L43.6862 6.93963C43.6922 6.99079 43.7182 7.03802 43.759 7.07223C43.7998 7.10643 43.8526 7.12518 43.9072 7.12487H45.1642C45.2129 7.12447 45.2601 7.10911 45.2986 7.0811C45.3372 7.0531 45.365 7.014 45.3778 6.96973C45.5416 6.45451 45.8772 6.00283 46.3348 5.68172C46.7923 5.36061 47.3474 5.18718 47.9178 5.18718C48.4881 5.18718 49.0433 5.36061 49.5008 5.68172C49.9584 6.00283 50.2939 6.45451 50.4577 6.96973C50.4706 7.014 50.4984 7.0531 50.5369 7.0811C50.5755 7.10911 50.6227 7.12447 50.6713 7.12487H52.0365C52.0921 7.12512 52.1458 7.10581 52.1871 7.07069C52.2284 7.03558 52.2544 6.98719 52.2599 6.93499L52.7264 2.71611Z" fill="#D6BD9A"/>
<path d="M50.6197 8.40304C50.5737 8.40314 50.5288 8.41681 50.4914 8.44213C50.454 8.46746 50.4259 8.50317 50.411 8.54429C50.2255 9.02753 49.8866 9.44515 49.4405 9.74029C48.9944 10.0354 48.4627 10.1938 47.9177 10.1938C47.3728 10.1938 46.841 10.0354 46.3949 9.74029C45.9488 9.44515 45.6099 9.02753 45.4244 8.54429C45.4096 8.50317 45.3815 8.46746 45.3441 8.44213C45.3067 8.41681 45.2618 8.40314 45.2157 8.40304H44.133C44.1017 8.40289 44.0707 8.40896 44.042 8.42083C44.0134 8.43269 43.9877 8.45011 43.9666 8.47194C43.9456 8.49377 43.9296 8.51953 43.9198 8.54755C43.9099 8.57557 43.9064 8.60522 43.9095 8.63459L44.6461 14.2428C44.6894 14.5155 44.8332 14.7651 45.0524 14.9477C45.2716 15.1302 45.5519 15.234 45.8443 15.2408H50.2637C50.5547 15.2352 50.8339 15.131 51.0503 14.9474C51.2666 14.7637 51.4058 14.5128 51.4422 14.2405L52.0659 8.63228C52.0689 8.60291 52.0655 8.57325 52.0556 8.54523C52.0458 8.51721 52.0298 8.49145 52.0088 8.46962C51.9877 8.44779 51.962 8.43038 51.9334 8.41851C51.9047 8.40664 51.8737 8.40058 51.8424 8.40073L50.6197 8.40304Z" fill="#D6BD9A"/>
<path d="M10.9115 26.602C10.9315 26.7521 10.9465 26.9022 10.9565 27.0523C10.9665 27.2024 10.9715 27.3525 10.9715 27.5026C10.9715 28.243 10.8364 28.9434 10.5663 29.6038C10.3061 30.2542 9.9409 30.8245 9.47062 31.3148C9.01034 31.7951 8.46002 32.1753 7.81964 32.4555C7.17926 32.7357 6.48885 32.8757 5.74841 32.8757C5.00797 32.8757 4.30755 32.7357 3.64716 32.4555C2.99678 32.1753 2.42644 31.7951 1.93615 31.3148C1.45586 30.8245 1.07564 30.2542 0.795472 29.6038C0.515306 28.9434 0.375222 28.243 0.375222 27.5026C0.375222 26.7621 0.515306 26.0667 0.795472 25.4163C1.07564 24.7559 1.45586 24.1856 1.93615 23.7053C2.42644 23.215 2.99678 22.8298 3.64716 22.5496C4.30755 22.2695 5.00797 22.1294 5.74841 22.1294C6.71898 22.1294 7.59951 22.3645 8.38998 22.8348C9.19045 23.2951 9.83083 23.9054 10.3111 24.6659L8.55507 25.7915C8.28491 25.2512 7.89968 24.821 7.39939 24.5008C6.9091 24.1706 6.35877 24.0055 5.74841 24.0055C5.29814 24.0055 4.87789 24.1005 4.48766 24.2907C4.09743 24.4708 3.75723 24.7209 3.46706 25.0411C3.17688 25.3513 2.94675 25.7215 2.77665 26.1518C2.60655 26.572 2.5215 27.0223 2.5215 27.5026C2.5215 27.9828 2.60655 28.4381 2.77665 28.8684C2.94675 29.2886 3.17688 29.6588 3.46706 29.979C3.75723 30.2892 4.09743 30.5394 4.48766 30.7295C4.87789 30.9096 5.29814 30.9996 5.74841 30.9996C6.10862 30.9996 6.44882 30.9396 6.76901 30.8195C7.0892 30.6995 7.37437 30.5294 7.62452 30.3092C7.87467 30.0891 8.0898 29.8339 8.2699 29.5438C8.46002 29.2436 8.6001 28.9134 8.69015 28.5532H5.83846L4.87789 26.602H10.9115ZM20.5751 32.7557H17.9035L16.2976 30.7745L18.0536 29.6338L20.5751 32.7557ZM18.1887 29.3036C17.9485 29.4137 17.7234 29.4937 17.5133 29.5438C17.3132 29.5938 17.063 29.6288 16.7628 29.6488C16.4727 29.6588 16.1074 29.6638 15.6672 29.6638C15.2369 29.6538 14.6766 29.6488 13.9862 29.6488V32.7557H11.8699V22.2494H16.6278C17.1381 22.2494 17.6133 22.3495 18.0536 22.5496C18.5039 22.7397 18.8941 23.0049 19.2243 23.3451C19.5645 23.6753 19.8296 24.0705 20.0198 24.5308C20.2199 24.9811 20.3199 25.4614 20.3199 25.9717C20.3199 26.7221 20.1198 27.3925 19.7196 27.9828C19.3294 28.5732 18.8191 29.0135 18.1887 29.3036ZM13.9862 27.5476H16.6278C17.078 27.5476 17.4582 27.3925 17.7684 27.0823C18.0786 26.7621 18.2337 26.3369 18.2337 25.8066C18.2337 25.5864 18.1887 25.3763 18.0986 25.1762C18.0186 24.9661 17.9035 24.7809 17.7534 24.6209C17.6133 24.4608 17.4432 24.3357 17.2431 24.2456C17.053 24.1456 16.8479 24.0955 16.6278 24.0955H13.9862V27.5026V27.5176V27.5476ZM21.2505 22.2494H23.4418V32.7557H21.2505V22.2494ZM26.681 22.2494L33.45 32.0052V32.7557H31.2587L26.681 26.1518V32.7557H24.4897V22.2494H26.681ZM31.2587 22.2494H33.45V30.1141L31.2587 28.5382V22.2494ZM39.0032 22.2494C39.7236 22.2494 40.404 22.3895 41.0444 22.6697C41.6848 22.9399 42.2401 23.3151 42.7104 23.7954C43.1907 24.2656 43.5659 24.821 43.8361 25.4614C44.1162 26.1017 44.2563 26.7821 44.2563 27.5026C44.2563 28.223 44.1162 28.9034 43.8361 29.5438C43.5659 30.1842 43.1907 30.7445 42.7104 31.2248C42.2401 31.695 41.6848 32.0703 41.0444 32.3504C40.404 32.6206 39.7236 32.7557 39.0032 32.7557H38.1327L37.1421 30.9246H39.0032C39.4335 30.9246 39.8387 30.8395 40.2189 30.6694C40.6092 30.4993 40.9444 30.2642 41.2245 29.964C41.5147 29.6538 41.7398 29.2886 41.8999 28.8684C42.07 28.4481 42.1551 27.9929 42.1551 27.5026C42.1551 27.0223 42.07 26.572 41.8999 26.1518C41.7398 25.7315 41.5147 25.3713 41.2245 25.0711C40.9444 24.7609 40.6092 24.5208 40.2189 24.3507C39.8387 24.1706 39.4335 24.0805 39.0032 24.0805H36.6018V32.7557H34.5005V22.2494H39.0032ZM48.161 32.7557V22.2494H50.3523V32.7557H48.161ZM54.96 22.2494H57.1213V32.7557H54.96V28.5682H51.598L50.6074 26.617H54.96V22.2494ZM63.2598 22.1144C64.0003 22.1144 64.6907 22.2595 65.331 22.5496C65.9714 22.8298 66.5268 23.215 66.997 23.7053C67.4673 24.1856 67.8325 24.7559 68.0927 25.4163C68.3628 26.0667 68.4979 26.7621 68.4979 27.5026C68.4979 28.1329 68.4029 28.7333 68.2128 29.3036C68.0226 29.874 67.7525 30.3893 67.4023 30.8495C67.0521 31.3098 66.6318 31.7051 66.1415 32.0352C65.6612 32.3554 65.1309 32.5856 64.5506 32.7257L63.5 30.9396C63.9202 30.9096 64.3004 30.7995 64.6406 30.6094C64.9908 30.4093 65.291 30.1591 65.5412 29.859C65.7913 29.5488 65.9864 29.1936 66.1265 28.7933C66.2666 28.3831 66.3366 27.9528 66.3366 27.5026C66.3366 27.0323 66.2566 26.587 66.0965 26.1668C65.9464 25.7465 65.7363 25.3813 65.4661 25.0711C65.196 24.7609 64.8708 24.5158 64.4905 24.3357C64.1203 24.1556 63.7101 24.0655 63.2598 24.0655C62.8095 24.0655 62.3943 24.1556 62.0141 24.3357C61.6439 24.5158 61.3187 24.7609 61.0385 25.0711C60.7683 25.3813 60.5532 25.7465 60.3931 26.1668C60.243 26.587 60.168 27.0323 60.168 27.5026C60.168 27.9728 60.243 28.4181 60.3931 28.8384C60.5532 29.2586 60.7683 29.6238 61.0385 29.934C61.3187 30.2442 61.6439 30.4893 62.0141 30.6694C62.3943 30.8495 62.8095 30.9396 63.2598 30.9396V32.8908C62.5194 32.8908 61.829 32.7507 61.1886 32.4705C60.5482 32.1903 59.9929 31.8051 59.5226 31.3148C59.0523 30.8245 58.6821 30.2542 58.4119 29.6038C58.1518 28.9434 58.0217 28.243 58.0217 27.5026C58.0217 26.7621 58.1518 26.0667 58.4119 25.4163C58.6821 24.7559 59.0523 24.1856 59.5226 23.7053C59.9929 23.215 60.5482 22.8298 61.1886 22.5496C61.829 22.2595 62.5194 22.1144 63.2598 22.1144ZM71.4554 28.4181C71.4554 28.7783 71.5154 29.1185 71.6355 29.4387C71.7656 29.7489 71.9407 30.0241 72.1608 30.2642C72.3809 30.4943 72.6361 30.6794 72.9263 30.8195C73.2264 30.9596 73.5416 31.0297 73.8718 31.0297V32.8757C73.2414 32.8757 72.6511 32.7607 72.1008 32.5305C71.5504 32.2904 71.0651 31.9652 70.6449 31.555C70.2347 31.1447 69.9095 30.6644 69.6693 30.1141C69.4392 29.5638 69.3241 28.9734 69.3241 28.3431V22.2494H71.4554V28.3431V28.3731V28.4181ZM78.3895 22.2494V28.3431C78.3895 28.8734 78.2994 29.3787 78.1193 29.859C77.9492 30.3292 77.7091 30.7595 77.3989 31.1497C77.0987 31.5299 76.7385 31.8601 76.3183 32.1403C75.898 32.4105 75.4427 32.6106 74.9525 32.7407L74.0219 31.0146C74.3321 30.9946 74.6223 30.9146 74.8924 30.7745C75.1626 30.6244 75.3977 30.4343 75.5978 30.2042C75.808 29.964 75.9681 29.6939 76.0781 29.3937C76.1982 29.0835 76.2582 28.7583 76.2582 28.4181C76.2582 28.4081 76.2532 28.4031 76.2432 28.4031C76.2432 28.3931 76.2432 28.3831 76.2432 28.3731C76.2432 28.3431 76.2432 28.3381 76.2432 28.3581C76.2532 28.3781 76.2582 28.3631 76.2582 28.313C76.2582 28.253 76.2582 28.1329 76.2582 27.9528C76.2582 27.7627 76.2582 27.4475 76.2582 27.0073C76.2582 26.557 76.2582 25.9516 76.2582 25.1912C76.2582 24.4307 76.2582 23.4502 76.2582 22.2494H78.3895ZM84.1238 26.617C84.6041 26.7471 85.0444 26.8922 85.4446 27.0523C85.8549 27.2124 86.2051 27.4075 86.4952 27.6376C86.7954 27.8678 87.0255 28.1429 87.1856 28.4631C87.3557 28.7833 87.4408 29.1635 87.4408 29.6038V29.6488C87.4408 30.1291 87.3407 30.5694 87.1406 30.9696C86.9505 31.3699 86.6803 31.7151 86.3301 32.0052C85.9899 32.2854 85.5847 32.5055 85.1144 32.6656C84.6541 32.8157 84.1488 32.8908 83.5985 32.8908C83.0882 32.8908 82.5979 32.8307 82.1276 32.7106C81.6674 32.5806 81.2471 32.4155 80.8669 32.2154C80.4867 32.0052 80.1515 31.7701 79.8613 31.5099C79.5811 31.2498 79.366 30.9796 79.2159 30.6995L80.972 29.5888C81.1621 29.7989 81.3522 29.989 81.5423 30.1591C81.7324 30.3192 81.9325 30.4593 82.1426 30.5794C82.3528 30.6895 82.5829 30.7745 82.8331 30.8345C83.0832 30.8946 83.3584 30.9246 83.6585 30.9246C83.8487 30.9246 84.0388 30.9046 84.2289 30.8646C84.429 30.8245 84.6091 30.7595 84.7692 30.6694C84.9293 30.5794 85.0594 30.4693 85.1594 30.3392C85.2595 30.1992 85.3095 30.0291 85.3095 29.8289C85.3095 29.6889 85.2745 29.5538 85.2045 29.4237C85.1344 29.2936 85.0144 29.1685 84.8443 29.0485C84.6741 28.9184 84.444 28.7983 84.1538 28.6883C83.8637 28.5682 83.4985 28.4531 83.0582 28.3431C82.5179 28.213 82.0326 28.0679 81.6023 27.9078C81.1721 27.7377 80.8069 27.5376 80.5067 27.3074C80.2065 27.0673 79.9764 26.7821 79.8163 26.4519C79.6562 26.1217 79.5761 25.7315 79.5761 25.2812C79.5761 24.791 79.6662 24.3507 79.8463 23.9605C80.0364 23.5602 80.2966 23.225 80.6267 22.9549C80.9569 22.6847 81.3422 22.4796 81.7824 22.3395C82.2327 22.1894 82.713 22.1144 83.2233 22.1144C83.7536 22.1144 84.2339 22.1744 84.6641 22.2945C85.0944 22.4145 85.4796 22.5696 85.8198 22.7597C86.16 22.9399 86.4552 23.15 86.7054 23.3901C86.9655 23.6203 87.1806 23.8454 87.3507 24.0655L85.6247 25.1762C85.1945 24.7659 84.7842 24.4808 84.394 24.3207C84.0138 24.1506 83.6135 24.0655 83.1933 24.0655C82.9331 24.0655 82.708 24.1005 82.5179 24.1706C82.3378 24.2306 82.1877 24.3107 82.0676 24.4107C81.9475 24.5008 81.8525 24.6058 81.7824 24.7259C81.7224 24.846 81.6924 24.9611 81.6924 25.0711C81.6924 25.2712 81.7424 25.4463 81.8425 25.5964C81.9525 25.7365 82.1076 25.8666 82.3077 25.9867C82.5179 26.1067 82.773 26.2168 83.0732 26.3169C83.3834 26.4169 83.7336 26.517 84.1238 26.617ZM94.1296 28.5682H91.7882L90.8126 26.602H94.1296V28.5682ZM95.3753 22.2494L95.3904 24.0055H90.4524L90.4374 31.0146H95.3753V32.7557H88.3362V22.2494H95.3753Z" fill="white"/>
<path d="M34.3668 42.6742C34.1296 42.6742 33.948 42.6066 33.8219 42.4715C33.6988 42.3364 33.6373 42.1458 33.6373 41.8997V40.2066C33.6373 39.9604 33.6988 39.7698 33.8219 39.6347C33.948 39.4996 34.1296 39.4321 34.3668 39.4321C34.6039 39.4321 34.784 39.4996 34.9071 39.6347C35.0332 39.7698 35.0962 39.9604 35.0962 40.2066V40.5398H34.6279V40.175C34.6279 39.9799 34.5454 39.8824 34.3803 39.8824C34.2152 39.8824 34.1326 39.9799 34.1326 40.175V41.9357C34.1326 42.1278 34.2152 42.2239 34.3803 42.2239C34.5454 42.2239 34.6279 42.1278 34.6279 41.9357V41.4539H35.0962V41.8997C35.0962 42.1458 35.0332 42.3364 34.9071 42.4715C34.784 42.6066 34.6039 42.6742 34.3668 42.6742ZM36.1173 42.6742C35.8742 42.6742 35.6881 42.6051 35.559 42.467C35.4299 42.3289 35.3654 42.1338 35.3654 41.8817V40.2246C35.3654 39.9724 35.4299 39.7773 35.559 39.6392C35.6881 39.5011 35.8742 39.4321 36.1173 39.4321C36.3605 39.4321 36.5466 39.5011 36.6757 39.6392C36.8048 39.7773 36.8693 39.9724 36.8693 40.2246V41.8817C36.8693 42.1338 36.8048 42.3289 36.6757 42.467C36.5466 42.6051 36.3605 42.6742 36.1173 42.6742ZM36.1173 42.2239C36.2885 42.2239 36.374 42.1203 36.374 41.9132V40.1931C36.374 39.9859 36.2885 39.8824 36.1173 39.8824C35.9462 39.8824 35.8607 39.9859 35.8607 40.1931V41.9132C35.8607 42.1203 35.9462 42.2239 36.1173 42.2239ZM37.2043 39.4771H38.5147V39.9274H37.6996V40.8055H38.339V41.2557H37.6996V42.6291H37.2043V39.4771ZM38.7522 39.4771H40.0625V39.9274H39.2475V40.8055H39.8869V41.2557H39.2475V42.6291H38.7522V39.4771ZM40.3001 39.4771H41.6509V39.9274H40.7954V40.7604H41.4753V41.2107H40.7954V42.1788H41.6509V42.6291H40.3001V39.4771ZM41.9359 39.4771H43.2868V39.9274H42.4312V40.7604H43.1111V41.2107H42.4312V42.1788H43.2868V42.6291H41.9359V39.4771ZM45.0224 42.6742C44.7792 42.6742 44.5931 42.6051 44.464 42.467C44.3349 42.3289 44.2704 42.1338 44.2704 41.8817V40.2516C44.2704 39.7052 44.5225 39.4321 45.0269 39.4321C45.267 39.4321 45.4501 39.5011 45.5762 39.6392C45.7023 39.7743 45.7653 39.9694 45.7653 40.2246V40.2831H45.297V40.1931C45.297 39.9859 45.2115 39.8824 45.0404 39.8824C44.9473 39.8824 44.8783 39.9109 44.8332 39.9679C44.7882 40.0249 44.7657 40.1255 44.7657 40.2696V40.873H44.7747C44.8617 40.6899 45.0118 40.5983 45.225 40.5983C45.4051 40.5983 45.5417 40.6599 45.6347 40.7829C45.7278 40.906 45.7743 41.0846 45.7743 41.3188V41.8817C45.7743 42.1338 45.7098 42.3289 45.5807 42.467C45.4516 42.6051 45.2655 42.6742 45.0224 42.6742ZM45.0224 42.2239C45.1935 42.2239 45.279 42.1218 45.279 41.9177V41.3593C45.279 41.1522 45.1935 41.0486 45.0224 41.0486C44.8512 41.0486 44.7657 41.1522 44.7657 41.3593V41.9177C44.7657 42.1218 44.8512 42.2239 45.0224 42.2239ZM46.817 39.4771H47.5645C47.8196 39.4771 48.0057 39.5371 48.1228 39.6572C48.2399 39.7743 48.2984 39.9559 48.2984 40.2021V40.3281C48.2984 40.4902 48.2714 40.6223 48.2174 40.7244C48.1663 40.8265 48.0868 40.9 47.9787 40.945V40.9541C48.2249 41.0381 48.348 41.2572 48.348 41.6115V41.8817C48.348 42.1248 48.2834 42.3109 48.1543 42.44C48.0283 42.5661 47.8421 42.6291 47.596 42.6291H46.817V39.4771ZM47.5059 40.7604C47.605 40.7604 47.6785 40.7349 47.7266 40.6839C47.7776 40.6328 47.8031 40.5473 47.8031 40.4272V40.2516C47.8031 40.1375 47.7821 40.055 47.7401 40.0039C47.701 39.9529 47.638 39.9274 47.5509 39.9274H47.3123V40.7604H47.5059ZM47.596 42.1788C47.683 42.1788 47.7476 42.1563 47.7896 42.1113C47.8316 42.0633 47.8526 41.9822 47.8526 41.8681V41.5935C47.8526 41.4494 47.8271 41.3503 47.7761 41.2963C47.7281 41.2392 47.647 41.2107 47.5329 41.2107H47.3123V42.1788H47.596ZM48.6375 39.4771H49.3715C49.6266 39.4771 49.8128 39.5371 49.9298 39.6572C50.0469 39.7743 50.1054 39.9559 50.1054 40.2021V40.3957C50.1054 40.7229 49.9974 40.93 49.7812 41.0171V41.0261C49.9013 41.0621 49.9854 41.1357 50.0334 41.2467C50.0844 41.3578 50.1099 41.5064 50.1099 41.6925V42.2464C50.1099 42.3364 50.1129 42.41 50.1189 42.467C50.125 42.5211 50.14 42.5751 50.164 42.6291H49.6597C49.6416 42.5781 49.6296 42.5301 49.6236 42.485C49.6176 42.44 49.6146 42.359 49.6146 42.2419V41.6655C49.6146 41.5214 49.5906 41.4209 49.5426 41.3638C49.4975 41.3068 49.418 41.2783 49.3039 41.2783H49.1328V42.6291H48.6375V39.4771ZM49.3129 40.828C49.412 40.828 49.4855 40.8025 49.5336 40.7514C49.5846 40.7004 49.6101 40.6148 49.6101 40.4948V40.2516C49.6101 40.1375 49.5891 40.055 49.5471 40.0039C49.5081 39.9529 49.445 39.9274 49.358 39.9274H49.1328V40.828H49.3129ZM50.4536 39.4771H51.8045V39.9274H50.9489V40.7604H51.6289V41.2107H50.9489V42.1788H51.8045V42.6291H50.4536V39.4771ZM52.4722 39.4771H53.1431L53.6564 42.6291H53.1611L53.0711 42.0032V42.0122H52.5082L52.4181 42.6291H51.9588L52.4722 39.4771ZM53.0125 41.5845L52.7919 40.0264H52.7829L52.5667 41.5845H53.0125ZM53.8968 39.4771H54.3921V40.8055L55.0225 39.4771H55.5178L54.9279 40.6343L55.5268 42.6291H55.009L54.5902 41.2242L54.3921 41.625V42.6291H53.8968V39.4771ZM55.7612 39.4771H57.0716V39.9274H56.2566V40.8055H56.896V41.2557H56.2566V42.6291H55.7612V39.4771ZM57.5468 39.4771H58.2177L58.731 42.6291H58.2357L58.1456 42.0032V42.0122H57.5828L57.4927 42.6291H57.0334L57.5468 39.4771ZM58.0871 41.5845L57.8665 40.0264H57.8575L57.6413 41.5845H58.0871ZM59.6021 42.6742C59.3619 42.6742 59.1803 42.6066 59.0572 42.4715C58.9341 42.3334 58.8726 42.1368 58.8726 41.8817V41.7015H59.3409V41.9177C59.3409 42.1218 59.4264 42.2239 59.5976 42.2239C59.6816 42.2239 59.7446 42.1999 59.7867 42.1518C59.8317 42.1008 59.8542 42.0197 59.8542 41.9087C59.8542 41.7766 59.8242 41.661 59.7642 41.5619C59.7041 41.4599 59.593 41.3383 59.4309 41.1972C59.2268 41.0171 59.0842 40.855 59.0032 40.7109C58.9221 40.5638 58.8816 40.3987 58.8816 40.2156C58.8816 39.9664 58.9446 39.7743 59.0707 39.6392C59.1968 39.5011 59.3799 39.4321 59.6201 39.4321C59.8572 39.4321 60.0358 39.5011 60.1559 39.6392C60.279 39.7743 60.3405 39.9694 60.3405 40.2246V40.3552H59.8722V40.1931C59.8722 40.085 59.8512 40.0069 59.8092 39.9589C59.7672 39.9079 59.7056 39.8824 59.6246 39.8824C59.4595 39.8824 59.3769 39.9829 59.3769 40.1841C59.3769 40.2981 59.4069 40.4047 59.467 40.5038C59.53 40.6028 59.6426 40.7229 59.8047 40.864C60.0118 41.0441 60.1544 41.2077 60.2325 41.3548C60.3105 41.5019 60.3495 41.6745 60.3495 41.8726C60.3495 42.1308 60.285 42.3289 60.1559 42.467C60.0298 42.6051 59.8452 42.6742 59.6021 42.6742ZM61.0208 39.9274H60.503V39.4771H62.0339V39.9274H61.5161V42.6291H61.0208V39.9274Z" fill="white"/>
<path d="M69.0881 48.5752H26.6124C26.5219 48.5752 26.4351 48.5413 26.3711 48.481C26.3071 48.4206 26.2711 48.3387 26.2711 48.2534C26.2711 48.168 26.3071 48.0862 26.3711 48.0258C26.4351 47.9654 26.5219 47.9315 26.6124 47.9315H69.0881C69.1786 47.9315 69.2654 47.9654 69.3294 48.0258C69.3934 48.0862 69.4294 48.168 69.4294 48.2534C69.4294 48.3387 69.3934 48.4206 69.3294 48.481C69.2654 48.5413 69.1786 48.5752 69.0881 48.5752V48.5752Z" fill="#D6BD9A"/>
<path d="M33.1728 15.2454H12.1043C12.0138 15.2454 11.927 15.2115 11.863 15.1512C11.799 15.0908 11.7631 15.0089 11.7631 14.9236C11.7631 14.8382 11.799 14.7563 11.863 14.696C11.927 14.6356 12.0138 14.6017 12.1043 14.6017H33.1728C33.2176 14.6017 33.262 14.61 33.3034 14.6262C33.3448 14.6424 33.3824 14.6661 33.4141 14.696C33.4458 14.7259 33.4709 14.7614 33.4881 14.8004C33.5052 14.8395 33.5141 14.8813 33.5141 14.9236C33.5141 14.9658 33.5052 15.0077 33.4881 15.0467C33.4709 15.0858 33.4458 15.1213 33.4141 15.1512C33.3824 15.181 33.3448 15.2048 33.3034 15.2209C33.262 15.2371 33.2176 15.2454 33.1728 15.2454V15.2454Z" fill="#D6BD9A"/>
<path d="M33.1728 11.5083H22.8092C22.7187 11.5083 22.6319 11.4744 22.5678 11.414C22.5038 11.3537 22.4679 11.2718 22.4679 11.1865C22.4679 11.1011 22.5038 11.0192 22.5678 10.9589C22.6319 10.8985 22.7187 10.8646 22.8092 10.8646H33.1728C33.2633 10.8646 33.3501 10.8985 33.4141 10.9589C33.4781 11.0192 33.514 11.1011 33.514 11.1865C33.514 11.2718 33.4781 11.3537 33.4141 11.414C33.3501 11.4744 33.2633 11.5083 33.1728 11.5083V11.5083Z" fill="#D6BD9A"/>
<path d="M62.6628 15.2454H83.7337C83.7785 15.2454 83.8229 15.2371 83.8643 15.2209C83.9057 15.2048 83.9433 15.181 83.975 15.1512C84.0067 15.1213 84.0319 15.0858 84.049 15.0467C84.0662 15.0077 84.075 14.9658 84.075 14.9236C84.075 14.8813 84.0662 14.8395 84.049 14.8004C84.0319 14.7614 84.0067 14.7259 83.975 14.696C83.9433 14.6661 83.9057 14.6424 83.8643 14.6262C83.8229 14.61 83.7785 14.6017 83.7337 14.6017H62.6628C62.5723 14.6017 62.4855 14.6356 62.4215 14.696C62.3575 14.7563 62.3215 14.8382 62.3215 14.9236C62.3215 15.0089 62.3575 15.0908 62.4215 15.1512C62.4855 15.2115 62.5723 15.2454 62.6628 15.2454V15.2454Z" fill="#D6BD9A"/>
<path d="M62.6628 11.5083H73.0288C73.1193 11.5083 73.2062 11.4744 73.2702 11.414C73.3342 11.3537 73.3701 11.2718 73.3701 11.1865C73.3701 11.1011 73.3342 11.0192 73.2702 10.9589C73.2062 10.8985 73.1193 10.8646 73.0288 10.8646H62.6628C62.5723 10.8646 62.4855 10.8985 62.4215 10.9589C62.3575 11.0192 62.3215 11.1011 62.3215 11.1865C62.3215 11.2718 62.3575 11.3537 62.4215 11.414C62.4855 11.4744 62.5723 11.5083 62.6628 11.5083V11.5083Z" fill="#D6BD9A"/>
</svg>
