<svg width="66" height="66" viewBox="0 0 66 66" fill="none" xmlns="http://www.w3.org/2000/svg">
<path d="M47.3042 36.0937C47.5418 36.1228 47.7813 36.0564 47.9699 35.909C48.1586 35.7617 48.281 35.5454 48.3102 35.3079L48.7717 31.5629C48.7957 31.3279 48.7267 31.0928 48.5794 30.9081C48.4322 30.7234 48.2184 30.6038 47.9839 30.5749C47.7494 30.546 47.513 30.6102 47.3253 30.7536C47.1376 30.8971 47.0136 31.1084 46.9799 31.3422L46.5189 35.0877C46.4898 35.3252 46.5561 35.5646 46.7034 35.7532C46.8506 35.9418 47.0667 36.0643 47.3042 36.0937V36.0937Z" fill="#CFB694"/>
<path d="M54.4282 25.7812C54.4269 25.002 54.1436 24.2496 53.6305 23.6631C53.1174 23.0767 52.4093 22.6958 51.6371 22.591C51.1786 20.4756 50.3212 18.467 49.1106 16.6727C49.0931 16.6433 49.074 16.6149 49.0533 16.5876C46.95 13.4842 43.8974 11.1462 40.3532 9.92419L41.8134 4.37039C41.8743 4.13902 41.8408 3.89296 41.7203 3.68626C41.5998 3.47956 41.4023 3.32913 41.171 3.26799L38.1803 2.47908C38.0657 2.44876 37.9462 2.44134 37.8287 2.45725C37.7112 2.47317 37.598 2.5121 37.4955 2.57183C37.3931 2.63155 37.3034 2.71089 37.2317 2.80531C37.1599 2.89973 37.1075 3.00737 37.0774 3.12207L35.5306 9.00019C35.264 8.98833 34.9917 8.98214 34.7154 8.98214H31.2828C28.1834 8.98098 25.1405 9.81227 22.4722 11.3892C19.8039 12.966 17.6081 15.2306 16.1142 17.9463C16.0863 17.9892 16.0621 18.0344 16.042 18.0814C15.2775 19.4976 14.7174 21.0151 14.3786 22.5885C13.6554 22.6816 12.9852 23.0175 12.4779 23.5413C11.9705 24.065 11.656 24.7454 11.5858 25.4712C11.5156 26.197 11.6938 26.9251 12.0914 27.5363C12.489 28.1476 13.0823 28.6057 13.7743 28.8358L15.0479 39.1673L17.955 62.7587C17.9821 62.9773 18.0882 63.1784 18.2532 63.3243C18.4182 63.4701 18.6309 63.5507 18.8511 63.5507H47.1486C47.3689 63.5507 47.5815 63.4701 47.7465 63.3243C47.9116 63.1784 48.0176 62.9773 48.0448 62.7587L52.2255 28.8358C52.8662 28.6213 53.4234 28.2111 53.8186 27.6631C54.2138 27.1151 54.427 26.4569 54.4282 25.7812V25.7812ZM49.258 38.1562H16.7417L15.614 29.0039H50.3857L49.258 38.1562ZM48.7373 42.3843L47.9855 48.4687H18.0143L17.2625 42.3843L16.9639 39.9609H49.0358L48.7373 42.3843ZM37.8797 19.3359C38.7881 19.5101 39.7113 19.5956 40.6363 19.5911C40.7868 19.5911 40.9456 19.5782 41.1003 19.5741C41.2819 20.1157 41.6478 20.5763 42.1343 20.8757C42.6207 21.175 43.1969 21.294 43.7621 21.2119C44.3274 21.1299 44.8459 20.8519 45.2272 20.4266C45.6084 20.0013 45.8282 19.4556 45.8482 18.8847C46.7413 18.6553 47.4735 18.417 47.9721 18.2412C48.7932 19.5797 49.402 21.0373 49.7768 22.5622H37.0315L37.8797 19.3359ZM44.0513 18.7842C44.0513 18.9117 44.0135 19.0363 43.9426 19.1423C43.8718 19.2483 43.7711 19.3309 43.6534 19.3796C43.5356 19.4284 43.406 19.4412 43.281 19.4163C43.156 19.3915 43.0411 19.3301 42.951 19.2399C42.8608 19.1498 42.7994 19.0349 42.7746 18.9099C42.7497 18.7849 42.7625 18.6553 42.8113 18.5375C42.86 18.4198 42.9427 18.3191 43.0486 18.2483C43.1546 18.1774 43.2792 18.1396 43.4067 18.1396C43.5776 18.1399 43.7414 18.2079 43.8622 18.3287C43.983 18.4495 44.051 18.6133 44.0513 18.7842V18.7842ZM46.8913 16.698C46.4453 16.8439 45.8833 17.012 45.2372 17.1734C44.9703 16.8653 44.6301 16.6294 44.2481 16.4873C43.8661 16.3451 43.4545 16.3014 43.0511 16.3601C42.6477 16.4188 42.2656 16.5781 41.94 16.8232C41.6143 17.0683 41.3555 17.3914 41.1875 17.7627C40.2347 17.8055 39.2801 17.7441 38.3407 17.5797L39.8876 11.6851C42.6483 12.6618 45.0764 14.3997 46.8913 16.698V16.698ZM38.5929 4.45444L39.8391 4.78289L35.1655 22.5586H33.8347L37.0733 10.2294C37.0779 10.2145 37.081 10.199 37.0852 10.1841L38.5929 4.45444ZM17.5002 19.1993C18.1705 19.0126 18.8289 18.8383 19.4745 18.6878C19.4745 18.7202 19.4647 18.7512 19.4647 18.7842C19.4641 19.147 19.5441 19.5054 19.6989 19.8335C19.8538 20.1616 20.0795 20.4512 20.36 20.6814C20.6404 20.9116 20.9684 21.0766 21.3204 21.1645C21.6724 21.2524 22.0395 21.261 22.3953 21.1897C22.751 21.1184 23.0864 20.969 23.3773 20.7522C23.6683 20.5354 23.9074 20.2567 24.0774 19.9363C24.2475 19.6158 24.3442 19.2615 24.3606 18.8991C24.3771 18.5367 24.3127 18.1751 24.1724 17.8406C27.157 17.4443 30.1857 17.527 33.1442 18.0855L31.9686 22.5586H16.2302C16.5197 21.3927 16.946 20.2651 17.5002 19.1993V19.1993ZM21.9139 18.1396C22.0414 18.1396 22.166 18.1774 22.272 18.2483C22.378 18.3191 22.4606 18.4198 22.5094 18.5375C22.5582 18.6553 22.5709 18.7849 22.5461 18.9099C22.5212 19.0349 22.4598 19.1498 22.3697 19.2399C22.2795 19.3301 22.1647 19.3915 22.0397 19.4163C21.9146 19.4412 21.785 19.4284 21.6673 19.3796C21.5495 19.3309 21.4488 19.2483 21.378 19.1423C21.3072 19.0363 21.2694 18.9117 21.2694 18.7842C21.2695 18.6133 21.3375 18.4494 21.4583 18.3286C21.5792 18.2077 21.743 18.1398 21.9139 18.1396ZM20.3155 15.3285C21.7525 13.884 23.4618 12.7388 25.3443 11.9592C27.2268 11.1797 29.2453 10.7812 31.2828 10.7868H34.7169C34.8339 10.7868 34.9458 10.792 35.0608 10.7941L33.6042 16.3355C29.753 15.6042 25.7986 15.6042 21.9474 16.3355C21.9361 16.3355 21.9253 16.3324 21.9139 16.3324C21.6039 16.3333 21.2968 16.3937 21.0095 16.5103C20.32 16.6419 19.6129 16.7947 18.8882 16.9687C19.325 16.3892 19.802 15.8411 20.3155 15.3285V15.3285ZM14.7942 24.3632H51.2056C51.5816 24.3632 51.9423 24.5126 52.2082 24.7786C52.4741 25.0445 52.6235 25.4051 52.6235 25.7812C52.6235 26.1573 52.4741 26.5179 52.2082 26.7839C51.9423 27.0498 51.5816 27.1992 51.2056 27.1992H14.7942C14.4181 27.1992 14.0574 27.0498 13.7915 26.7839C13.5256 26.5179 13.3762 26.1573 13.3762 25.7812C13.3762 25.4051 13.5256 25.0445 13.7915 24.7786C14.0574 24.5126 14.4181 24.3632 14.7942 24.3632V24.3632ZM46.3504 61.7461H19.6488L18.2349 50.2734H47.7648L46.3504 61.7461Z" fill="#CFB694"/>
<path d="M31.1277 19.1993C30.99 19.0036 30.7802 18.8706 30.5445 18.8296C30.3087 18.7886 30.0663 18.8429 29.8706 18.9806L28.1304 20.2052C27.9371 20.3439 27.8064 20.5532 27.7666 20.7877C27.7268 21.0222 27.7813 21.2629 27.9181 21.4575C28.0549 21.6521 28.263 21.7848 28.4972 21.8267C28.7313 21.8687 28.9725 21.8165 29.1684 21.6815L30.9086 20.4569C31.1044 20.3191 31.2375 20.1093 31.2785 19.8734C31.3196 19.6376 31.2654 19.3951 31.1277 19.1993Z" fill="#CFB694"/>
</svg>
