<svg width="74" height="67" viewBox="0 0 74 67" fill="none" xmlns="http://www.w3.org/2000/svg">
<g clip-path="url(#clip0)">
<path d="M19.8108 29.9011H15.8262C15.1747 29.9011 14.6465 30.3791 14.6465 30.9692C14.6465 31.5592 15.1747 32.0373 15.8262 32.0373H19.8108C20.4623 32.0373 20.9905 31.5592 20.9905 30.9692C20.9905 30.3793 20.4623 29.9011 19.8108 29.9011Z" fill="#D6BD9A"/>
<path d="M72.7408 37.1334C71.1745 34.1946 68.3383 32.4401 65.1546 32.4401C65.1261 32.4401 65.0971 32.4426 65.0685 32.4429C64.9709 32.1246 64.8732 31.8382 64.7787 31.5915C64.3266 30.4098 63.2751 29.2321 61.8936 28.3605C61.3368 28.0092 60.6112 28.1935 60.2731 28.7725C59.9351 29.3512 60.1124 30.1053 60.6693 30.4568C61.5932 31.0396 62.3277 31.8217 62.5864 32.4976C63.1989 34.0988 63.5346 35.894 63.7186 37.6021C63.8993 39.2802 63.8793 41.0221 63.3965 42.6474C63.2266 43.219 62.9991 43.7724 62.7079 44.2887C62.6812 44.3363 62.6536 44.3833 62.6255 44.4299C62.6225 44.4347 62.6207 44.4398 62.6178 44.4449C61.9707 45.5128 61.0535 46.2015 59.8277 46.5432C58.5123 46.9097 57.3498 46.894 56.3033 46.4912C56.3133 46.4684 56.3216 46.4453 56.3313 46.4225C57.2292 44.3244 57.4602 41.9503 57.0127 39.7035C56.8174 38.7231 56.4516 37.7942 56.1107 36.8616L54.7783 33.2178C54.451 32.3226 53.9779 31.4795 53.3908 30.7417C54.3668 29.9427 55.4589 29.4935 56.649 29.4032C57.2987 29.3538 57.7871 28.7662 57.7397 28.0911C57.6922 27.4159 57.1271 26.9072 56.4773 26.9573C54.6964 27.0924 53.0363 27.8248 51.6204 29.0853C50.2501 28.12 48.6101 27.5668 46.8936 27.5668C45.6395 27.5671 44.4246 27.853 43.2822 28.4171L38.6759 30.6912C38.464 30.7959 38.2588 30.9118 38.0573 31.0336L39.2886 20.1168H41.2955C41.6702 20.1168 42.0226 19.9318 42.2451 19.6185C42.4675 19.3049 42.5334 18.9003 42.4226 18.5282L40.8497 13.2456C40.6967 12.7321 40.2399 12.3821 39.7227 12.3821H6.01724C5.50009 12.3821 5.04327 12.7323 4.89029 13.2456L3.3174 18.5282C3.20659 18.9003 3.2725 19.305 3.49487 19.6185C3.71723 19.9319 4.0696 20.1168 4.4445 20.1168H6.45139C6.45139 20.1168 7.70667 31.2474 7.70667 31.2479L8.75592 40.5515L10.8633 59.236C10.933 59.8536 11.4367 60.3195 12.035 60.3195H26.7225C28.1128 63.5131 31.2116 66.0304 34.7321 66.7896C35.3717 66.9275 36.0388 67.0003 36.6616 67.0004C39.5146 67.0004 41.2418 65.5273 41.2819 63.0599C41.3068 61.5235 40.7789 60.0937 40.1622 58.783C41.2043 58.5965 42.1954 58.1553 43.1191 57.4629C44.7588 56.2335 45.8194 54.725 46.2853 52.9681C46.4094 52.9726 46.5338 52.9753 46.6588 52.9753C48.2361 52.9753 49.7625 52.6166 51.1951 51.9094C52.7436 51.145 54.0696 50.0146 55.085 48.6226C56.0087 49.0459 56.9952 49.259 58.0388 49.259C58.8089 49.259 59.6098 49.1435 60.4391 48.9124C61.5459 48.6039 62.4981 48.0855 63.2928 47.3665C63.8801 48.691 64.6129 50.0188 65.7737 50.969C66.4854 51.5515 67.2538 51.8469 68.0574 51.8469C70.5964 51.8469 72.2477 48.94 72.6932 48.049C74.418 44.5993 74.4368 40.3149 72.7408 37.1334ZM7.50079 17.6642H6.04445L6.8872 14.8339H38.8525L39.6952 17.6642H38.2389H7.50079ZM26.0143 57.8667H13.0844L11.7991 46.4697H26.8067C26.7996 46.6098 26.7937 46.7496 26.7927 46.8881C26.7853 48.0658 27.0045 49.1642 27.4604 50.0147C27.4619 50.0179 27.4639 50.0212 27.4655 50.0241C27.484 50.0582 27.5038 50.0942 27.5245 50.1318C27.6374 50.3359 27.7663 50.5538 27.9104 50.7829C26.2999 52.7875 25.6317 55.3269 26.0143 57.8667ZM27.7727 42.6207C27.5574 43.0702 27.3765 43.5391 27.2303 44.0177H11.5224L11.0701 40.0085L10.2043 32.3309H11.9477C12.5992 32.3309 13.1274 31.7821 13.1274 31.1048C13.1274 30.4274 12.5992 29.8786 11.9477 29.8786H9.92777L8.82667 20.1164H36.9127L35.8116 29.8786H25.37C24.7185 29.8786 24.1903 30.4274 24.1903 31.1048C24.1903 31.7821 24.7185 32.3309 25.37 32.3309H35.5348L35.3957 33.564C35.1468 33.9327 34.9271 34.3205 34.7366 34.7219C34.7332 34.7293 34.7295 34.7367 34.7261 34.7439C34.2797 35.6913 34.0095 36.7081 33.9034 37.7557C33.901 37.7799 33.8981 37.804 33.896 37.828C32.3335 38.1184 31.058 38.7712 30.0402 39.6331C30.0349 39.6377 30.0295 39.6422 30.0242 39.6468C29.2995 40.264 28.6847 41.0114 28.1917 41.8378C28.0406 42.092 27.9007 42.3533 27.7727 42.6207ZM36.6611 64.5478C36.1971 64.5477 35.6958 64.4924 35.2115 64.3879C32.3029 63.7608 29.7676 61.6534 28.7526 59.019C28.717 58.9269 28.6863 58.8342 28.6547 58.7417C28.6422 58.698 28.6281 58.6553 28.6112 58.6138C27.9739 56.616 28.2732 54.5061 29.38 52.8306C29.3362 52.897 30.2813 53.8958 30.3697 53.9937C30.7898 54.4583 31.227 54.9066 31.6823 55.3341C32.7577 56.3434 33.9427 57.2513 35.2494 57.911C35.255 57.9138 35.2606 57.9165 35.2662 57.9193C35.3597 57.9665 35.4539 58.0119 35.5487 58.0562C35.5566 58.06 35.5646 58.0636 35.5724 58.0673C36.1895 58.3539 36.8261 58.5777 37.4774 58.7181C38.203 60.146 38.9457 61.6209 38.9229 63.018C38.9161 63.4365 38.8978 64.5478 36.6611 64.5478ZM41.7387 55.4736C40.877 56.1195 39.9833 56.4336 39.0051 56.4335C37.262 56.4331 35.6063 55.4669 34.2642 54.389C34.2617 54.3872 34.2593 54.385 34.2565 54.3831C32.8968 53.323 31.7027 51.9856 30.6718 50.5866C30.6603 50.5711 30.6488 50.5555 30.6374 50.54C30.1277 49.8461 29.6133 49.1325 29.3556 48.2908C29.1043 47.4705 29.1039 46.5993 29.2438 45.7568C29.4373 44.5916 29.9058 43.4511 30.606 42.5175C30.6077 42.5151 30.6095 42.5128 30.6111 42.5104C31.4678 41.3878 32.6743 40.6189 34.0166 40.3061C34.0187 40.3056 34.0206 40.3053 34.0227 40.3048C33.9835 40.3134 34.3415 41.5074 34.3755 41.6045C34.5422 42.0795 34.7463 42.5422 34.9892 42.9804C34.9901 42.9821 34.9911 42.9841 34.9921 42.9859C35.8235 44.4826 36.6391 45.9901 37.4889 47.4755C37.7101 47.8622 37.9442 48.239 38.2046 48.5983C38.2295 48.6327 38.2541 48.6674 38.2795 48.7015C39.6204 50.5101 41.4548 51.8258 43.5551 52.4889C43.6147 52.508 43.675 52.5253 43.735 52.5432C43.7991 52.5622 43.8623 52.5834 43.9267 52.6012C43.5661 53.6988 42.8434 54.6455 41.7387 55.4736ZM52.3338 48.1474C51.7028 48.7793 50.9739 49.3033 50.1825 49.6939C49.0689 50.2435 47.8833 50.5224 46.6584 50.5224C43.7105 50.5224 41.0311 48.8498 39.5276 46.2453L37.0356 41.7596C36.5458 40.8788 36.2663 39.8829 36.2267 38.8662C36.1305 36.3622 37.5124 33.9799 39.6879 32.9058L44.2943 30.6317C45.1177 30.2252 45.9922 30.0191 46.8933 30.0191C49.1945 30.0189 51.3059 31.3979 52.3255 33.5074C53.153 35.2192 53.6887 37.1405 54.3436 38.9311C54.344 38.9325 54.3445 38.9343 54.3451 38.9357C55.5016 42.1057 54.6782 45.7999 52.3338 48.1474ZM70.5999 46.9176C69.8705 48.3758 68.825 49.3943 68.0573 49.3943C67.7924 49.3943 67.5227 49.2791 67.2332 49.0422C66.1767 48.1775 65.5461 46.6469 64.9396 45.1598C64.9455 45.1483 64.9505 45.1367 64.9561 45.1255C64.9677 45.1018 64.9803 45.0795 64.9919 45.0556C65.0084 45.0212 65.023 44.9855 65.0391 44.9508C65.0732 44.8777 65.1063 44.8042 65.1387 44.73C65.1583 44.685 65.178 44.6399 65.197 44.5941C65.7911 43.1672 66.0372 41.604 66.0922 40.058C66.1427 38.6335 66.0325 37.2042 65.8159 35.7979C65.8038 35.7188 65.7046 34.9172 65.6662 34.9139C67.77 35.0882 69.6179 36.3344 70.6774 38.3223C72.0006 40.8041 71.97 44.1781 70.5999 46.9176Z" fill="#D6BD9A"/>
</g>
<defs>
<clipPath id="clip0">
<rect width="74" height="67" fill="white"/>
</clipPath>
</defs>
</svg>
