<svg width="65" height="65" viewBox="0 0 65 65" fill="none" xmlns="http://www.w3.org/2000/svg">
<path d="M61.7499 9.75H59.5832V7.58329C59.5832 5.78843 58.128 4.3333 56.3332 4.3333H53.7527L52.1851 1.1982C51.8208 0.461618 51.0688 -0.00328331 50.2471 1.74612e-05H48.7499C47.5533 1.74612e-05 46.5832 0.970064 46.5832 2.16672V4.33343H34.6665C32.8715 4.33343 31.4165 5.78843 31.4165 7.58342V9.75H29.2499C27.4551 9.75 26 11.2051 26 13V15.1667C26 16.3634 26.97 17.3334 28.1667 17.3334H28.2816L29.549 28.5263L24.3295 27.3C24.0662 26.8949 23.7878 26.4929 23.478 26.0985L21.6363 18.1718C21.5226 17.6816 21.0865 17.3344 20.5834 17.3333H14.3585C11.4216 14.7452 7.95056 13.5752 5.33215 14.3454L3.74182 12.6121C3.14082 11.9561 2.19667 11.7404 1.37046 12.0704C0.542858 12.3893 -0.00227799 13.1856 7.15676e-06 14.0725V61.7716C0.00241926 63.5535 1.44638 64.9975 3.22829 64.9999H56.3332C56.8839 64.9995 57.3467 64.5861 57.409 64.039L62.7162 17.3333H62.8333C64.03 17.3333 65 16.3632 65 15.1666V13C64.9999 11.2051 63.5449 9.75 61.7499 9.75ZM48.7499 2.16672H50.2471L51.3304 4.33343H48.7499V2.16672ZM33.5832 7.58329C33.5832 6.98496 34.0683 6.5 34.6665 6.5H56.3332C56.9315 6.5 57.4165 6.98496 57.4165 7.58329V9.75H33.5832V7.58329ZM30.5499 30.9832L30.6182 30.9962L31.4936 31.2041L32.0807 37.3521C30.3793 36.1476 28.3435 35.5058 26.2589 35.5169C26.6602 33.6055 26.4478 31.6162 25.6522 29.8327L30.5499 30.9832ZM32.6668 40.5654L32.6808 40.5773C33.0733 40.9404 33.4459 41.3244 33.7966 41.7278C35.0855 43.1659 36.0332 44.8763 36.5689 46.7316C36.752 47.3778 36.8463 48.0458 36.8495 48.7174L26.7312 37.6825C28.9817 37.9345 31.0773 38.9523 32.6668 40.5654ZM21.2506 26.7974V26.7952C23.5885 29.4819 24.6772 32.7092 24.1605 34.8779L13.1354 22.8584C15.3595 22.3611 18.7417 23.9233 21.2506 26.7974ZM19.7167 19.5L20.5834 23.1887C19.7127 22.5094 18.7639 21.937 17.757 21.4836C17.3475 20.791 16.8896 20.1281 16.3866 19.5H19.7167ZM14.2708 20.306H14.2751C14.365 20.409 14.4387 20.5227 14.5253 20.631C13.5083 20.5373 12.4843 20.7093 11.5537 21.1304L7.1001 16.2739C9.27772 16.3052 12.1193 17.837 14.2708 20.306ZM45.407 62.1969C45.2393 62.5827 44.8589 62.8325 44.4382 62.8333H34.6665H3.22829C2.6419 62.8333 2.16658 62.358 2.16658 61.7716L2.14703 14.0834L23.8906 37.791V37.7964L36.661 51.7183L36.675 51.7346L43.6799 59.3742C43.7048 59.4067 43.7308 59.4392 43.759 59.4706L45.2117 61.0544C45.4981 61.3626 45.5747 61.8111 45.407 62.1969ZM38.701 50.7367C38.8993 50.0898 39.0001 49.4168 38.9999 48.7401C39.5691 49.2202 40.0993 49.7443 40.586 50.3078C41.1911 50.9993 41.7284 51.7473 42.1904 52.5416C42.823 53.6054 43.2702 54.7688 43.5131 55.9823L38.701 50.7367ZM55.3658 62.8333H47.4738C47.8795 61.7108 47.6222 60.4556 46.8075 59.5833L45.7166 58.3916C45.9307 56.5781 45.6382 54.7407 44.8716 53.0833H56.4741L55.3658 62.8333ZM56.72 50.9166H43.72C43.2753 50.2031 42.777 49.5245 42.2294 48.8864C41.1632 47.6489 39.9116 46.5844 38.5189 45.7306C37.8824 43.7235 36.8299 41.873 35.4304 40.2998C35.1054 39.9315 34.7804 39.5881 34.4391 39.2577L33.5834 30.2303C33.5393 29.7684 33.2061 29.386 32.7546 29.2792L31.7947 29.0517L31.5672 27.0833H59.4294L56.72 50.9166ZM59.6753 24.9167H31.3213L30.4634 17.3334H60.5366L59.6753 24.9167ZM62.8332 15.1667H28.1667V13C28.1667 12.4017 28.6516 11.9167 29.2499 11.9167H61.7499C62.3482 11.9167 62.8332 12.4017 62.8332 13V15.1667Z" fill="#D6BD9A"/>
<path d="M45.9443 47.6667C46.006 47.6667 46.0667 47.6581 46.1274 47.656C46.1436 47.656 46.1599 47.6667 46.1761 47.6667C46.2305 47.6634 46.2844 47.6558 46.3375 47.644C48.0333 47.5295 49.5959 46.6844 50.6199 45.3279C51.9847 43.4101 52.375 40.9648 51.675 38.7175C51.5244 38.1563 51.3868 37.606 51.2536 37.0741C50.4086 33.6864 49.6016 30.4917 46.1793 30.3477C46.1446 30.3477 46.1121 30.3412 46.0775 30.3412C46.0428 30.3412 45.9919 30.3336 45.9442 30.3336C42.1157 30.3336 39 34.2217 39 39.0003C39 43.7789 42.1158 47.6667 45.9443 47.6667ZM46.7828 32.6626C47.9029 33.1025 48.3959 34.5703 49.152 37.5982C49.2875 38.1399 49.4283 38.7076 49.5853 39.2828C50.1039 40.8796 49.8505 42.6267 48.8995 44.0104C48.5543 44.4632 48.1124 44.8333 47.606 45.0937C47.5694 43.2314 47.2027 41.3904 46.5227 39.6564C46.4144 39.3185 46.306 38.9923 46.2107 38.6814C45.5803 36.6309 46.3191 33.9734 46.7828 32.6626ZM44.4547 32.8251C43.7497 34.9174 43.6413 37.1648 44.1416 39.3153C44.2412 39.6403 44.3517 39.9772 44.4666 40.3271C45.0083 41.9803 45.6583 43.979 45.3928 45.4501C43.0182 45.0797 41.1667 42.3302 41.1667 39.0001C41.1668 36.1238 42.5481 33.682 44.4547 32.8251Z" fill="#D6BD9A"/>
<path d="M5.73435 56.9682L4.96845 57.7342C4.68687 58.0062 4.57388 58.4089 4.67303 58.7877C4.77218 59.1666 5.06798 59.4624 5.44668 59.5614C5.82551 59.6605 6.2282 59.5475 6.50026 59.266L7.26617 58.5001C7.67673 58.075 7.67089 57.3993 7.25297 56.9815C6.83516 56.5635 6.15939 56.5577 5.73435 56.9682Z" fill="#D6BD9A"/>
<path d="M16.0916 49.6753C16.5149 49.252 16.5149 48.5657 16.0916 48.1423C15.6684 47.7191 14.9821 47.7191 14.5587 48.1423L13.7928 48.9082C13.5189 49.1818 13.4119 49.5808 13.5119 49.9547C13.612 50.3287 13.904 50.6208 14.2778 50.7211C14.6517 50.8214 15.0507 50.7147 15.3246 50.4411L16.0916 49.6753Z" fill="#D6BD9A"/>
<path d="M6.49998 46.9009L5.73407 47.6668C5.45249 47.9388 5.3395 48.3415 5.43865 48.7204C5.5378 49.0991 5.8336 49.3949 6.2123 49.494C6.59113 49.5932 6.99383 49.4802 7.26589 49.1986L8.03179 48.4327C8.44236 48.0076 8.43652 47.3319 8.01859 46.9141C7.60079 46.4961 6.92502 46.4903 6.49998 46.9009Z" fill="#D6BD9A"/>
<path d="M6.49998 39.3175L5.73407 40.0834C5.45249 40.3555 5.3395 40.7582 5.43865 41.137C5.5378 41.5157 5.8336 41.8115 6.2123 41.9107C6.59113 42.0098 6.99383 41.8968 7.26589 41.6152L8.03179 40.8493C8.44236 40.4243 8.43652 39.7485 8.01859 39.3307C7.60079 38.9129 6.92502 38.9071 6.49998 39.3175Z" fill="#D6BD9A"/>
<path d="M16.25 56.9682L15.4841 57.7342C15.2025 58.0062 15.0895 58.4089 15.1887 58.7877C15.2878 59.1666 15.5836 59.4624 15.9623 59.5614C16.3411 59.6605 16.7438 59.5475 17.0159 59.266L17.7818 58.5001C18.1924 58.075 18.1865 57.3993 17.7686 56.9815C17.3508 56.5635 16.675 56.5577 16.25 56.9682Z" fill="#D6BD9A"/>
<path d="M24.1504 56.9682L23.3845 57.7341C23.1029 58.0062 22.9899 58.4089 23.089 58.7877C23.1882 59.1665 23.484 59.4623 23.8627 59.5613C24.2415 59.6605 24.6442 59.5475 24.9163 59.2659L25.6822 58.5C26.0927 58.075 26.0869 57.3992 25.669 56.9814C25.2511 56.5636 24.5754 56.5576 24.1504 56.9682Z" fill="#D6BD9A"/>
</svg>
