<svg width="176" height="85" viewBox="0 0 176 85" fill="none" xmlns="http://www.w3.org/2000/svg">
<path d="M50.1507 6.23045L46.2009 17H43.5779L39.6281 6.23045H41.9424L44.9048 14.7936L47.8518 6.23045H50.1507ZM59.3918 12.541C59.3918 12.8496 59.3713 13.1273 59.3301 13.3741H53.0813C53.1327 13.9913 53.3487 14.4748 53.7293 14.8245C54.1099 15.1742 54.5779 15.3491 55.1334 15.3491C55.9357 15.3491 56.5066 15.0045 56.846 14.3153H59.1758C58.929 15.1382 58.4558 15.8171 57.7563 16.352C57.0569 16.8766 56.198 17.1389 55.1797 17.1389C54.3568 17.1389 53.6162 16.9589 52.9579 16.5988C52.3099 16.2285 51.8007 15.7091 51.4304 15.0405C51.0704 14.3719 50.8904 13.6004 50.8904 12.7261C50.8904 11.8415 51.0704 11.0649 51.4304 10.3963C51.7904 9.72773 52.2944 9.21342 52.9424 8.85341C53.5905 8.49339 54.3362 8.31339 55.1797 8.31339C55.9923 8.31339 56.7174 8.48825 57.3552 8.83798C58.0032 9.1877 58.5021 9.68658 58.8518 10.3346C59.2118 10.9723 59.3918 11.7078 59.3918 12.541ZM57.1546 11.9238C57.1443 11.3684 56.9437 10.9261 56.5529 10.5969C56.162 10.2575 55.6837 10.0877 55.118 10.0877C54.5831 10.0877 54.1305 10.2523 53.7602 10.5815C53.4002 10.9003 53.179 11.3478 53.0967 11.9238H57.1546ZM63.1286 9.77916C63.4063 9.32657 63.7663 8.9717 64.2086 8.71454C64.6612 8.45739 65.1755 8.32882 65.7515 8.32882V10.5969H65.1807C64.5018 10.5969 63.9875 10.7563 63.6377 11.0752C63.2983 11.3941 63.1286 11.9495 63.1286 12.7416V17H60.9685V8.45225H63.1286V9.77916ZM81.4982 8.32882C82.5474 8.32882 83.3908 8.65283 84.0286 9.30085C84.6766 9.93859 85.0006 10.8335 85.0006 11.9855V17H82.8405V12.2787C82.8405 11.6101 82.6708 11.1009 82.3314 10.7512C81.9919 10.3912 81.5291 10.2112 80.9427 10.2112C80.3564 10.2112 79.8884 10.3912 79.5387 10.7512C79.1993 11.1009 79.0295 11.6101 79.0295 12.2787V17H76.8694V12.2787C76.8694 11.6101 76.6997 11.1009 76.3603 10.7512C76.0208 10.3912 75.558 10.2112 74.9717 10.2112C74.3751 10.2112 73.9019 10.3912 73.5522 10.7512C73.2127 11.1009 73.043 11.6101 73.043 12.2787V17H70.8829V8.45225H73.043V9.486C73.3207 9.12599 73.6756 8.84312 74.1076 8.6374C74.5499 8.43168 75.0334 8.32882 75.558 8.32882C76.2266 8.32882 76.8232 8.47282 77.3478 8.76083C77.8723 9.03856 78.2786 9.43971 78.5667 9.96431C78.8444 9.47057 79.2455 9.07456 79.7701 8.77626C80.305 8.47796 80.881 8.32882 81.4982 8.32882ZM86.495 12.6953C86.495 11.8312 86.6647 11.0649 87.0041 10.3963C87.3538 9.72773 87.8219 9.21342 88.4082 8.85341C89.0048 8.49339 89.6682 8.31339 90.3985 8.31339C91.0363 8.31339 91.5917 8.44196 92.0649 8.69911C92.5483 8.95627 92.9341 9.28028 93.2221 9.67115V8.45225H95.3976V17H93.2221V15.7502C92.9443 16.1514 92.5586 16.4857 92.0649 16.7531C91.5814 17.0103 91.0208 17.1389 90.3831 17.1389C89.6631 17.1389 89.0048 16.9537 88.4082 16.5834C87.8219 16.2131 87.3538 15.6937 87.0041 15.0251C86.6647 14.3462 86.495 13.5696 86.495 12.6953ZM93.2221 12.7261C93.2221 12.2015 93.1192 11.7541 92.9135 11.3838C92.7078 11.0032 92.43 10.7152 92.0803 10.5198C91.7306 10.314 91.3551 10.2112 90.954 10.2112C90.5528 10.2112 90.1825 10.3089 89.8431 10.5043C89.5036 10.6998 89.2259 10.9878 89.0099 11.3684C88.8042 11.7387 88.7013 12.181 88.7013 12.6953C88.7013 13.2096 88.8042 13.6622 89.0099 14.053C89.2259 14.4336 89.5036 14.7268 89.8431 14.9325C90.1928 15.1382 90.5631 15.2411 90.954 15.2411C91.3551 15.2411 91.7306 15.1434 92.0803 14.9479C92.43 14.7422 92.7078 14.4542 92.9135 14.0839C93.1192 13.7033 93.2221 13.2507 93.2221 12.7261ZM92.9289 6.23045L89.3802 7.85051V6.3076L92.9289 4.47153V6.23045ZM100.778 17.1389C100.079 17.1389 99.4513 17.0154 98.8959 16.7686C98.3404 16.5114 97.8981 16.1668 97.569 15.7348C97.2501 15.3028 97.0752 14.8245 97.0444 14.2999H99.2199C99.261 14.6291 99.4205 14.9016 99.6982 15.1176C99.9862 15.3337 100.341 15.4417 100.763 15.4417C101.174 15.4417 101.493 15.3594 101.719 15.1948C101.956 15.0302 102.074 14.8193 102.074 14.5622C102.074 14.2845 101.93 14.0787 101.642 13.945C101.365 13.801 100.917 13.6467 100.3 13.4822C99.6622 13.3279 99.1376 13.1684 98.7262 13.0038C98.325 12.8393 97.9753 12.5873 97.677 12.2478C97.389 11.9084 97.245 11.4506 97.245 10.8746C97.245 10.4015 97.3787 9.96945 97.6461 9.57858C97.9239 9.1877 98.3147 8.87912 98.8187 8.65283C99.333 8.42653 99.9348 8.31339 100.624 8.31339C101.642 8.31339 102.455 8.57054 103.062 9.08484C103.669 9.58886 104.003 10.2729 104.065 11.1369H101.997C101.966 10.7975 101.822 10.53 101.565 10.3346C101.318 10.1289 100.984 10.026 100.562 10.026C100.171 10.026 99.8679 10.098 99.6519 10.242C99.4462 10.386 99.3433 10.5866 99.3433 10.8438C99.3433 11.1318 99.4873 11.3529 99.7754 11.5072C100.063 11.6512 100.511 11.8004 101.118 11.9547C101.735 12.109 102.244 12.2684 102.645 12.433C103.046 12.5975 103.391 12.8547 103.679 13.2044C103.977 13.5439 104.132 13.9965 104.142 14.5622C104.142 15.0559 104.003 15.4982 103.725 15.8891C103.458 16.28 103.067 16.5886 102.553 16.8149C102.049 17.0309 101.457 17.1389 100.778 17.1389Z" fill="white"/>
<path d="M12.3076 65.3885C11.3083 65.9145 10.4667 65.52 9.78297 64.2051C9.3096 63.2057 9.07292 61.9434 9.07292 60.4181C9.12551 58.8928 9.3885 57.4464 9.86187 56.0789C10.493 54.3432 11.4924 52.8705 12.8599 51.6608C14.2274 50.3985 15.8316 49.5832 17.6725 49.215C17.8829 49.215 18.0143 49.1361 18.0669 48.9784C18.4877 47.8212 19.303 45.2177 20.5127 41.1678C20.6705 40.747 20.7231 40.5103 20.6705 40.4577C20.6705 40.4051 20.2234 40.747 19.3293 41.4833C18.4877 42.1671 17.1728 43.1927 15.3845 44.5602C13.6488 45.9277 11.8868 47.1901 10.0986 48.3472C6.83756 50.5037 4.39182 51.5819 2.76132 51.5819C2.34055 51.5819 1.97237 51.503 1.65679 51.3452C0.552265 50.8718 0.0262983 49.8199 0.0788949 48.1894C0.131492 46.5063 0.788949 44.455 2.05127 42.0356C3.41878 39.1954 5.23336 36.5655 7.49502 34.1461C9.75667 31.6741 12.0709 29.7806 14.4378 28.4657C16.4364 27.4137 18.4351 26.8878 20.4338 26.8878C21.1701 26.8878 21.6698 26.993 21.9328 27.2033C22.2484 27.4137 22.4588 27.8345 22.564 28.4657C22.7743 29.465 22.6691 31.0692 22.2484 33.2783C22.0906 34.225 22.0117 34.751 22.0117 34.8562C22.0117 34.9088 22.0906 34.9088 22.2484 34.8562C22.301 34.8562 22.3273 34.8299 22.3273 34.7773C22.3799 34.7773 22.3273 34.8562 22.1695 35.0139C21.9065 35.2769 21.775 35.2243 21.775 34.8562C21.775 34.751 21.8276 34.3565 21.9328 33.6727C22.1432 32.2526 22.2484 30.9903 22.2484 29.8858C22.2484 28.8338 22.1432 28.1501 21.9328 27.8345C21.775 27.5189 21.249 27.3611 20.3549 27.3611C19.4082 27.4137 18.4351 27.5978 17.4358 27.9134C13.3332 29.2283 9.49369 32.3841 5.91712 37.3808C4.6022 39.2743 3.52397 41.1415 2.68243 42.9823C1.84088 44.7706 1.31492 46.3485 1.10453 47.716C0.946739 49.1361 1.23602 50.004 1.97237 50.3196C3.39248 51.0033 6.60088 49.5306 11.5976 45.9014C13.0703 44.8495 15.5423 42.9297 19.0137 40.1421C20.6968 38.722 21.6961 38.0383 22.0117 38.0908C22.2221 38.0908 22.3799 38.1697 22.4851 38.3275C22.5903 38.4327 22.6165 38.6431 22.564 38.9587C22.5114 39.2743 22.4325 39.5636 22.3273 39.8265C22.2747 40.0895 22.1695 40.4577 22.0117 40.9311C21.8539 41.3518 21.7487 41.6937 21.6961 41.9567C21.1701 43.7976 20.6968 45.4018 20.276 46.7693C19.8552 48.0842 19.6448 48.768 19.6448 48.8206C19.6448 48.8206 19.6974 48.8206 19.8026 48.8206C22.8532 49.0309 24.2207 49.4254 23.9052 50.004C23.9052 50.004 23.8263 50.0303 23.6685 50.0829C23.3529 50.1881 22.4588 50.2933 20.9861 50.3985C19.9341 50.4511 19.3293 50.5037 19.1715 50.5562C19.0663 50.5562 18.8296 51.1085 18.4614 52.213C16.8835 56.8415 15.3319 60.5759 13.8066 63.4161C13.2281 64.5207 12.7284 65.1781 12.3076 65.3885ZM11.992 63.5739C13.3595 61.5226 14.99 57.762 16.8835 52.2919L17.3569 50.9507C15.253 51.4767 13.5436 52.739 12.2287 54.7377C10.9664 56.6838 10.4404 58.9191 10.6508 61.4438C10.8612 63.1794 11.1768 64.0473 11.5976 64.0473C11.7027 64.0473 11.8342 63.8895 11.992 63.5739ZM41.397 50.0829C40.6081 50.2933 39.6613 50.3459 38.5568 50.2407C37.4523 50.0829 36.7685 49.5306 36.5055 48.5839C36.453 48.4787 36.3741 48.1631 36.2689 47.6371C36.2163 47.0586 36.1111 46.5589 35.9533 46.1381C35.8481 45.7174 35.7429 45.4281 35.6377 45.2703C35.4799 45.1125 35.2958 45.0336 35.0854 45.0336C34.6647 45.0336 33.9809 45.3229 33.0342 45.9014C32.0874 46.4274 31.0881 47.0849 30.0362 47.8738C28.9842 48.6102 27.9586 49.3465 26.9593 50.0829C25.9599 50.8192 25.1184 51.4504 24.4346 51.9764C23.7509 52.5023 23.409 52.739 23.409 52.6864C23.3564 52.6338 23.5668 52.213 24.0401 51.4241C24.5135 50.6351 25.0132 49.7673 25.5392 48.8206C26.0651 47.8738 26.3281 47.2427 26.3281 46.9271C26.3807 46.4537 26.1966 46.1907 25.7758 46.1381C25.3551 46.0855 25.0395 46.2959 24.8291 46.7693C24.6187 47.4005 24.1453 48.3209 23.409 49.5306C22.6726 50.7403 22.0152 51.8449 21.4366 52.8442C20.8581 53.8435 20.5688 54.4747 20.5688 54.7377C20.5688 55.0533 20.7003 55.2899 20.9632 55.4477C21.3314 55.6055 21.8837 55.474 22.62 55.0533C23.3038 54.6325 24.8554 53.5017 27.2748 51.6608C27.38 51.6082 28.1164 51.0296 29.4839 49.9251C30.8514 48.768 32.0348 47.8475 33.0342 47.1638C34.0335 46.4274 34.6647 46.0855 34.9277 46.1381C35.2432 46.1907 35.4536 46.9008 35.5588 48.2683C35.6114 48.8469 35.7429 49.3465 35.9533 49.7673C36.2163 50.1355 36.5318 50.3985 36.9 50.5562C37.2682 50.6614 37.6364 50.7403 38.0046 50.7929C38.4253 50.8455 38.8198 50.8455 39.188 50.7929C39.6088 50.6877 39.9769 50.5825 40.2925 50.4774C40.6081 50.3722 40.8711 50.267 41.0815 50.1618L41.397 50.0829ZM39.0949 57.1834C37.78 56.6049 38.1219 54.3169 40.1205 50.3196C40.8569 48.8469 41.4881 47.9001 42.014 47.4793C42.6452 46.9008 43.1185 46.9534 43.4341 47.6371C43.6971 48.3209 43.5656 48.7417 43.0397 48.8995C42.8293 48.8995 42.5926 49.0835 42.3296 49.4517C41.6458 50.5037 41.0147 51.7134 40.4361 53.0809C39.8576 54.3958 39.5946 55.2636 39.6472 55.6844C39.7524 55.9474 39.8576 56.0789 39.9628 56.0789C40.5413 56.1315 41.6458 55.5266 43.2763 54.2643C44.9594 53.002 46.3532 51.7923 47.4578 50.6351C48.0363 50.0566 48.3256 49.7936 48.3256 49.8462C48.3256 50.0566 48.0889 50.5037 47.6156 51.1874C46.9318 52.0816 45.9062 53.1598 44.5387 54.4221C42.014 56.7889 40.1994 57.7094 39.0949 57.1834ZM44.6176 43.6135C43.8812 43.6135 43.513 43.3242 43.513 42.7456C43.513 42.4301 43.8812 42.0882 44.6176 41.72C45.3539 41.3518 46.064 41.1152 46.7477 41.01C47.4315 40.9048 47.8259 40.9048 47.9311 41.01C47.9837 41.1678 47.2474 41.72 45.7221 42.6668C45.2487 42.9823 44.9857 43.219 44.9331 43.3768C44.9331 43.5346 44.8279 43.6135 44.6176 43.6135ZM55.9624 56.1578C55.3312 56.4734 54.779 56.5523 54.3056 56.3945C53.8322 56.2893 53.6218 55.9211 53.6744 55.2899C53.727 54.6062 54.4108 52.5286 55.7257 49.0572C56.0939 48.1631 56.278 47.6897 56.278 47.6371C56.1202 47.5319 55.3575 48.0316 53.99 49.1361C53.4115 49.6095 52.2543 50.6088 50.5186 52.1341C48.6252 53.712 47.3891 54.7114 46.8106 55.1322C46.232 55.5529 45.785 55.737 45.4694 55.6844C44.996 55.6318 44.7593 55.3951 44.7593 54.9744C44.7593 54.8166 44.8908 54.4747 45.1538 53.9487C45.6798 52.8968 47.8888 48.8469 51.781 41.7989C52.0965 41.2203 52.4121 40.9311 52.7277 40.9311C52.8855 40.9311 53.0433 41.01 53.2011 41.1678C53.3589 41.3255 53.4378 41.5096 53.4378 41.72C53.4378 41.8778 53.3063 42.2723 53.0433 42.9034C52.7803 43.482 52.5436 43.9028 52.3332 44.1658C52.0702 44.4813 50.5975 47.0586 47.9151 51.8975C47.8099 52.0027 47.7047 52.1604 47.5995 52.3708C47.3366 52.8442 47.2314 53.0809 47.284 53.0809C47.3366 53.0809 47.6521 52.8442 48.2307 52.3708C49.0196 51.6871 49.7034 51.1085 50.282 50.6351C52.8592 48.4787 54.6738 47.1375 55.7257 46.6115C56.5673 46.1907 57.1721 46.1644 57.5403 46.5326C57.6981 46.6904 57.7244 46.9271 57.6192 47.2427C57.5666 47.5582 57.2773 48.2683 56.7513 49.3728C56.3306 50.3722 55.9624 51.2663 55.6468 52.0553C55.3312 52.8442 55.0683 53.5543 54.8579 54.1854C54.7001 54.764 54.5949 55.2373 54.5423 55.6055H54.779C55.3049 55.6055 56.1465 55.2899 57.3036 54.6588C58.5133 54.0276 59.4075 53.5017 59.986 53.0809C60.3016 52.8705 61.3536 52.2393 63.1418 51.1874C65.1931 49.9777 65.2457 50.0566 63.2996 51.4241C62.9315 51.6871 62.3792 52.0816 61.6428 52.6075C59.276 54.2906 57.3825 55.474 55.9624 56.1578ZM65.346 67.3609C65.346 66.6771 65.8719 64.8625 66.9239 61.9171C68.0284 59.0243 69.1066 56.2893 70.1586 53.712C71.2631 51.0822 71.7891 49.741 71.7365 49.6884C71.7365 49.6884 71.605 49.7936 71.342 50.004C71.079 50.2144 70.7108 50.4774 70.2375 50.7929C69.7641 51.0559 69.2644 51.3189 68.7384 51.5819C68.2125 51.8449 67.6339 52.0816 67.0028 52.2919C66.4242 52.4497 65.8982 52.5023 65.4249 52.4497C64.7411 52.3445 64.2677 52.0553 64.0048 51.5819C63.7418 51.1085 63.7681 50.5825 64.0836 50.004C64.4518 49.215 65.1882 48.4524 66.2927 47.716C69.3433 45.5596 71.6313 45.1388 73.1566 46.4537C74.4189 43.3505 76.3913 38.6431 79.0737 32.3315C81.8087 26.0199 83.4392 22.3908 83.9652 21.444C84.2282 20.9706 84.4648 20.7077 84.6752 20.6551C84.9382 20.5499 85.1749 20.6025 85.3853 20.8129C85.5957 21.0232 85.6483 21.2336 85.5431 21.444C84.123 24.7576 82.2295 29.0179 79.8626 34.225C77.5484 39.4321 75.2341 44.6391 72.9199 49.8462C70.6582 55.0007 68.7384 59.3925 67.1605 63.0216C66.056 65.7041 65.5038 67.2294 65.5038 67.5976C65.5038 67.8079 65.4775 67.9131 65.4249 67.9131C65.3723 67.9131 65.346 67.729 65.346 67.3609ZM72.6043 47.9527C72.4991 47.9001 72.315 47.7686 72.052 47.5582C71.8416 47.3479 71.5524 47.2427 71.1842 47.2427C70.1323 47.2427 68.9488 47.6634 67.6339 48.505C66.319 49.2939 65.5301 50.004 65.2671 50.6351L65.0304 50.9507C65.8193 51.6345 67.4498 51.3189 69.9219 50.004C71.2368 49.2676 72.1309 48.5839 72.6043 47.9527ZM90.858 63.8895C90.858 64.4155 90.7002 64.7573 90.3846 64.9151C90.1216 65.1255 89.8324 65.1255 89.5168 64.9151C89.2538 64.7573 89.1223 64.4681 89.1223 64.0473C89.1749 63.2583 90.3846 59.8659 92.7515 53.8698L96.6173 44.4813C96.5647 44.4813 96.2755 44.5076 95.7495 44.5602C95.3287 44.6128 94.1453 44.718 92.1992 44.8758C90.3057 45.0336 89.0171 45.1651 88.3334 45.2703C88.0178 45.3229 87.6759 45.3492 87.3077 45.3492C86.9921 45.3492 86.8081 45.3229 86.7555 45.2703C86.6503 45.1125 87.0973 44.9547 88.0967 44.7969C89.096 44.5865 90.4109 44.3761 92.0414 44.1658C93.6719 43.9028 94.5924 43.7713 94.8027 43.7713C96.328 43.5083 97.0907 43.3768 97.0907 43.3768C97.1433 43.3768 97.4589 42.8508 98.0374 41.7989C101.351 35.5399 104.533 30.6484 107.584 27.1245L108.452 26.0199C108.399 26.0199 108.346 26.0462 108.294 26.0988C106.663 26.9404 104.691 28.1238 102.377 29.6491C100.431 30.9114 98.7212 32.2263 97.2485 33.5938C95.8284 34.9613 95.1709 35.8555 95.2761 36.2763C95.3287 36.5392 95.7495 36.7233 96.5384 36.8285C97.0644 36.8811 97.3274 36.9074 97.3274 36.9074C97.3274 36.9074 96.7751 36.9074 95.6706 36.9074C94.9342 36.7496 94.7239 36.3552 95.0394 35.724C95.3024 35.1454 95.9336 34.3302 96.9329 33.2783C98.9316 31.1744 101.798 28.9653 105.532 26.6511C108.425 24.8102 109.872 24.4157 109.872 25.4677C109.872 25.7832 109.267 26.7037 108.057 28.229C106.742 29.9121 105.795 31.1744 105.217 32.0159C104.638 32.8575 103.744 34.3039 102.534 36.3552C100.115 40.6155 98.9579 42.8245 99.0631 42.9823C99.1157 42.9823 99.7468 42.8771 100.957 42.6668C103.902 42.246 106.558 41.9304 108.925 41.72L110.266 41.6411L111.686 39.0376C114.474 33.8831 117.183 29.2809 119.812 25.231C120.075 24.8102 120.365 24.2316 120.68 23.4953C120.733 23.5479 120.759 23.6268 120.759 23.732C120.812 23.995 120.785 24.2316 120.68 24.442C120.628 24.5998 120.417 25.0206 120.049 25.7043C119.681 26.3881 119.234 27.2033 118.708 28.1501C118.235 29.0442 117.919 29.6491 117.761 29.9647C117.288 30.8062 116.736 31.8319 116.104 33.0416C113.264 38.4064 111.844 41.2203 111.844 41.4833C111.844 41.5359 112.317 41.5622 113.264 41.5622C114.211 41.5622 115.263 41.5885 116.42 41.6411C117.63 41.6937 118.419 41.7726 118.787 41.8778C119.26 42.0356 119.444 42.3249 119.339 42.7456C119.286 43.1664 119.023 43.3768 118.55 43.3768C118.445 43.3768 117.735 43.3505 116.42 43.2979C115.158 43.1927 114.079 43.1138 113.185 43.0612C112.291 43.0086 111.607 43.0349 111.134 43.1401C110.976 43.1927 110.398 44.3235 109.398 46.5326C108.452 48.7417 107.689 50.6351 107.11 52.213C106.111 54.8955 105.506 57.1308 105.296 58.9191C105.191 59.971 104.928 60.4707 104.507 60.4181C104.296 60.4181 104.112 60.2866 103.955 60.0236C103.849 59.8659 103.797 59.6029 103.797 59.2347C103.797 58.3405 103.981 57.1834 104.349 55.7633C104.77 54.2906 105.243 52.8705 105.769 51.503C106.348 50.0829 106.926 48.7417 107.505 47.4793C108.083 46.217 108.557 45.1914 108.925 44.4024C109.346 43.5609 109.53 43.1401 109.477 43.1401C109.477 43.1401 108.715 43.1927 107.189 43.2979C105.664 43.4031 104.612 43.482 104.033 43.5346C100.983 43.8502 99.1683 44.0606 98.5897 44.1658C98.4319 44.2184 98.1163 44.7706 97.643 45.8226C96.854 47.5056 95.7495 50.2144 94.3294 53.9487C91.9625 59.9973 90.8054 63.3109 90.858 63.8895ZM120.496 58.1302C119.917 58.3931 119.339 58.472 118.76 58.3668C118.182 58.2617 117.787 57.9461 117.577 57.4201C117.366 56.8941 117.419 56.0526 117.735 54.8955C118.471 52.5286 119.786 49.8199 121.679 46.7693C122.521 45.4018 123.178 44.5339 123.652 44.1658C124.178 43.745 124.625 43.7187 124.993 44.0869C125.098 44.4024 125.151 44.6654 125.151 44.8758C125.151 45.0336 125.019 45.3229 124.756 45.7437C124.493 46.1118 124.362 46.3485 124.362 46.4537C124.046 47.1901 123.678 47.4793 123.257 47.3216C123.205 47.3216 123.126 47.3742 123.021 47.4793C122.968 47.5319 122.863 47.716 122.705 48.0316C121.39 50.0829 120.364 52.029 119.628 53.8698C118.944 55.6581 118.708 56.7101 118.918 57.0256C119.234 57.3412 119.996 56.9993 121.206 56C122.468 54.9481 123.625 53.712 124.677 52.2919C124.993 51.8712 125.151 51.6345 125.151 51.5819C125.151 51.5293 124.993 51.4241 124.677 51.2663C123.731 50.7929 123.257 50.2407 123.257 49.6095C123.31 48.9784 123.888 48.4787 124.993 48.1105C125.992 47.7949 126.676 47.9001 127.044 48.4261C127.412 48.8995 127.386 49.6095 126.965 50.5562C126.808 50.977 126.729 51.1874 126.729 51.1874C126.729 51.3452 127.491 51.4504 129.017 51.503C130.7 51.503 132.383 51.0559 134.066 50.1618C134.539 49.8988 134.776 49.7936 134.776 49.8462C134.829 49.8462 134.776 49.8988 134.618 50.004C134.513 50.1092 134.329 50.2407 134.066 50.3985C133.856 50.5562 133.671 50.6877 133.514 50.7929C132.514 51.3715 131.357 51.7923 130.042 52.0553C128.727 52.2656 127.57 52.2393 126.571 51.9764C126.413 51.9238 126.176 52.1341 125.861 52.6075C124.02 55.3951 122.232 57.236 120.496 58.1302ZM125.624 50.7929C125.94 50.5825 126.15 49.9777 126.255 48.9784H125.94C124.993 48.9784 124.441 49.215 124.283 49.6884C124.23 49.8462 124.283 49.9777 124.441 50.0829C125.124 50.6088 125.519 50.8455 125.624 50.7929ZM134.911 54.5799C134.543 54.8429 134.148 55.0533 133.728 55.2111C133.254 55.3162 132.833 55.3162 132.465 55.2111C132.097 55.1059 131.913 54.8429 131.913 54.4221C131.913 54.1591 132.281 53.2913 133.017 51.8186C135.279 47.4005 136.384 45.1125 136.331 44.9547C136.278 44.5339 136.436 44.2184 136.804 44.008C137.225 43.7976 137.567 43.8239 137.83 44.0869C138.093 44.3498 138.119 44.7969 137.909 45.4281C137.699 46.1118 136.752 47.979 135.069 51.0296C134.227 52.6601 133.806 53.5017 133.806 53.5543C133.912 53.6069 134.385 53.3439 135.227 52.7653C136.015 52.2393 137.12 51.3452 138.54 50.0829C140.276 48.6102 141.486 47.6634 142.169 47.2427C142.906 46.8219 143.405 46.7693 143.668 47.0849C143.826 47.2953 143.747 48.0053 143.432 49.215C143.169 50.4248 142.879 51.5819 142.564 52.6864C142.248 53.7383 142.196 54.2643 142.406 54.2643C142.774 54.2643 143.642 53.8961 145.01 53.1598C146.377 52.3708 147.639 51.6345 148.796 50.9507C149.954 50.2144 150.532 49.8725 150.532 49.9251C150.585 49.9251 150.032 50.3722 148.875 51.2663C147.771 52.1078 146.982 52.6864 146.509 53.002C143.458 55.1059 141.775 55.6581 141.459 54.6588C141.354 54.3432 141.512 53.1335 141.933 51.0296C142.248 49.7673 142.432 48.8995 142.485 48.4261C142.012 48.7417 141.249 49.3728 140.197 50.3196C138.566 51.7923 137.409 52.8179 136.726 53.3965C136.094 53.9224 135.49 54.3169 134.911 54.5799ZM150.861 58.9191C150.493 58.7613 150.256 58.5509 150.151 58.288C149.993 58.0776 149.967 57.8146 150.072 57.499C150.178 57.236 150.309 56.9467 150.467 56.6312C150.625 56.3682 150.835 56.1315 151.098 55.9211C151.887 55.0796 153.281 54.0802 155.279 52.9231C155.595 52.7653 155.753 52.6601 155.753 52.6075C155.753 52.5549 155.569 52.4234 155.201 52.213C154.675 51.9501 153.728 51.6608 152.36 51.3452C151.151 51.0822 150.362 50.8718 149.993 50.714C149.573 50.5037 149.231 50.2144 148.968 49.8462C148.915 49.741 148.889 49.5569 148.889 49.2939C148.889 49.0309 148.915 48.8206 148.968 48.6628C149.389 47.9264 150.809 46.8482 153.228 45.4281C155.648 44.008 157.646 43.2979 159.224 43.2979C160.276 43.2979 160.776 43.745 160.723 44.6391C160.671 45.1125 160.513 45.5596 160.25 45.9803C160.039 46.3485 159.75 46.3748 159.382 46.0592C159.224 45.9014 159.145 45.6648 159.145 45.3492V44.7969C158.146 44.9547 156.857 45.4018 155.279 46.1381C153.702 46.8745 152.413 47.5845 151.414 48.2683C150.73 48.7943 150.388 49.1361 150.388 49.2939C150.388 49.3991 150.782 49.5569 151.571 49.7673C152.413 49.9777 153.36 50.2407 154.412 50.5562C155.516 50.8718 156.279 51.24 156.7 51.6608L157.094 51.9764L158.277 51.3452C158.593 51.1874 159.198 50.9507 160.092 50.6351C161.039 50.267 161.512 50.1092 161.512 50.1618C161.512 50.2144 161.275 50.3459 160.802 50.5562C159.855 51.0296 158.935 51.5293 158.041 52.0553C157.936 52.1078 157.83 52.1604 157.725 52.213C157.515 52.3182 157.436 52.5023 157.488 52.7653C158.014 54.3432 157.199 55.9474 155.043 57.5779C154.359 58.1039 153.596 58.4983 152.755 58.7613C151.966 59.0243 151.335 59.0769 150.861 58.9191ZM151.256 57.1045C150.888 57.7357 150.993 58.025 151.571 57.9724C152.203 57.9198 152.834 57.6831 153.465 57.2623C155.095 56.263 156.042 55.2111 156.305 54.1065C156.358 53.9487 156.358 53.7646 156.305 53.5543C156.305 53.2913 156.279 53.1598 156.226 53.1598C155.963 53.1598 155.016 53.7909 153.386 55.0533C152.281 55.8948 151.571 56.5786 151.256 57.1045ZM159.518 53.3965C159.412 52.5549 159.833 51.3715 160.78 49.8462C161.727 48.3209 162.91 46.9008 164.33 45.5859C166.224 43.8502 167.828 42.8245 169.143 42.509C169.879 42.3512 170.537 42.4301 171.115 42.7456C171.746 43.0612 172.062 43.5872 172.062 44.3235C172.009 44.9021 171.746 45.4807 171.273 46.0592C170.694 46.743 169.748 47.5056 168.433 48.3472C167.17 49.1887 165.934 49.8725 164.725 50.3985C163.778 50.8192 163.094 51.0559 162.673 51.1085C162.253 51.1611 161.858 51.0559 161.49 50.7929L161.095 51.503C160.412 53.0283 160.543 53.9224 161.49 54.1854C161.858 54.2906 162.305 54.3432 162.831 54.3432C163.357 54.3432 163.83 54.3169 164.251 54.2643C164.725 54.1591 165.224 54.0276 165.75 53.8698C166.329 53.712 166.802 53.5543 167.17 53.3965C167.539 53.2387 167.959 53.0809 168.433 52.9231C168.959 52.7127 169.301 52.5812 169.458 52.5286L174.902 50.1618C174.902 50.267 173.955 50.8455 172.062 51.8975C171.325 52.3182 170.405 52.7653 169.301 53.2387C168.249 53.712 166.934 54.2117 165.356 54.7377C163.83 55.2636 162.516 55.4477 161.411 55.2899C160.306 55.0796 159.675 54.4484 159.518 53.3965ZM163.383 49.2939C164.593 48.8732 166.092 48.0842 167.88 46.9271C169.721 45.77 170.642 44.8758 170.642 44.2447C170.642 44.1395 170.563 44.0343 170.405 43.9291C170.037 43.7187 169.327 43.8765 168.275 44.4024C167.223 44.9284 166.118 45.7174 164.961 46.7693C163.594 47.979 162.752 48.8732 162.437 49.4517C162.384 49.5569 162.463 49.5832 162.673 49.5306C162.831 49.478 163.068 49.3991 163.383 49.2939Z" fill="black"/>
<path d="M27.001 81.7746C51.1733 73.5457 111.09 59.5566 157.377 69.4312" stroke="black" stroke-width="0.771458"/>
<path d="M162.778 70.9741L165.863 74.06" stroke="black" stroke-width="0.771458"/>
</svg>
