<svg id="Capa_1" data-name="Capa 1" xmlns="http://www.w3.org/2000/svg" viewBox="0 0 278.35 339"><defs><style>.cls-1{fill:#fff;}.cls-2{fill:#995c2d;}</style></defs><title>lettering-coffee</title><path class="cls-1" d="M201.52,271.13c-.35-.75-.66-1.45-1-2.13a33.11,33.11,0,0,1-2.94-12.5,29,29,0,0,1,1.84-12.41,16.31,16.31,0,0,1,8.1-9,7.32,7.32,0,0,1,1.12-.46c1-.3,1.27-.19,1.76.68.84,1.48,1.64,3,2.46,4.48.3.53.39,1-.29,1.33-4.2,2.29-6.06,6-6.54,10.63a26.9,26.9,0,0,0,1.28,11.54c.14.42.31.82.53,1.37.35-.28.63-.48.88-.7a109.87,109.87,0,0,1,15.71-11.75,62.69,62.69,0,0,1,15.3-6.46,56.42,56.42,0,0,1,11.65-2,27.63,27.63,0,0,1,11.27,1.43,13.79,13.79,0,0,1,8.1,7.08,14.06,14.06,0,0,1,1.2,8.13,23.17,23.17,0,0,1-5.36,11.72,37.86,37.86,0,0,1-12.74,10.12A50.28,50.28,0,0,1,238.25,287a47.47,47.47,0,0,1-13.15.17,31.82,31.82,0,0,1-17.41-8.1l-.81-.71a2.16,2.16,0,0,0-.41-.14c-.82.89-1.71,1.82-2.57,2.78a105.2,105.2,0,0,0-11.42,15.45,70.21,70.21,0,0,0-7.62,17.45,41.37,41.37,0,0,0-1.81,11.53c0,5.62,1.16,10.94,4.45,15.68a11.57,11.57,0,0,0,8.73,5.13,27.15,27.15,0,0,0,16-3.49,80.41,80.41,0,0,0,13.27-9.14c2.07-1.71,4.07-3.52,6.05-5.33a4.14,4.14,0,0,0,.89-1.47c.71-1.74,1.35-3.52,2.07-5.26a46.4,46.4,0,0,1,7.64-12.14c1.65-2,3.29-3.93,5.11-5.71a44,44,0,0,1,5.49-4.52,42.55,42.55,0,0,1,6.25-3.66,16.79,16.79,0,0,1,14.93-.26,13.68,13.68,0,0,1,7.56,9.31c.9,3.42,1,6.39.39,10.93a5.91,5.91,0,0,0,.81-.44q5.22-3.93,10.41-7.89a19.18,19.18,0,0,0,5.28-6.21,119.64,119.64,0,0,1,8.51-13.54c1.73-2.38,3.62-4.64,5.51-6.9s4.05-4.8,6.18-7.09a27.68,27.68,0,0,1,6.49-5,10.64,10.64,0,0,1,6.48-1.4,7.22,7.22,0,0,1,6.21,4.67,18.88,18.88,0,0,1,1.28,9.63,34.13,34.13,0,0,1-6.48,16.17,63.52,63.52,0,0,1-12.76,13.58,46.14,46.14,0,0,1-19.42,9.13c-.26.06-.52.14-.78.22l-.69.22c0,.37-.07.71-.11,1.06a1,1,0,0,0,.74,1.12,28.2,28.2,0,0,0,12.49,2.09,48.73,48.73,0,0,0,14.65-3.21,3.56,3.56,0,0,0,1.95-1.71c2-3.53,4.15-7,6.26-10.51,1.48-2.45,2.95-4.91,4.48-7.34a193.43,193.43,0,0,1,13.37-19,47.16,47.16,0,0,1,9.53-9,13.54,13.54,0,0,1,6.15-2.21,8.23,8.23,0,0,1,4,.27c2.9,1,4.38,3.25,5,6.13a17.13,17.13,0,0,1-.4,7.6,40.71,40.71,0,0,1-8.33,16.84A75.59,75.59,0,0,1,352,318.16a107.32,107.32,0,0,1-10.69,6.47c-.19.1-.37.22-.7.41a3,3,0,0,0,.77.42c1.85.31,3.7.66,5.57.86,3.2.35,6.22-.46,9.24-1.41a67.46,67.46,0,0,0,7.49-3.29,3.23,3.23,0,0,0,1.64-2,33.17,33.17,0,0,1,3.67-7.16,40.45,40.45,0,0,1,6.94-8.33,22.67,22.67,0,0,1,9.94-5.42,13.49,13.49,0,0,1,7.05.15,10.57,10.57,0,0,1,7.37,11.73,19.18,19.18,0,0,1-5.89,11.22,28.59,28.59,0,0,1-10,6.48,14.79,14.79,0,0,1-9,.43,12,12,0,0,1-2.5-1.27l-1-.53c-.69,3.4-1.11,6.66.8,9.73a6.79,6.79,0,0,0,7.18,3.39,19.74,19.74,0,0,0,8.09-3.1c3.49-2.18,6.34-5.13,9.43-7.79l2.93-2.57a2.88,2.88,0,0,0,1.09-2,21.66,21.66,0,0,1,2.05-6.8A41.33,41.33,0,0,1,409,309a25,25,0,0,1,11-7.89,14.83,14.83,0,0,1,8.62-.52,8.55,8.55,0,0,1,6.53,8.37,16.78,16.78,0,0,1-2.18,8.5,22.25,22.25,0,0,1-11,10.46,22,22,0,0,1-12.21,2.14,7.67,7.67,0,0,0,.88,3.84,6.43,6.43,0,0,0,5.56,3.49,13.6,13.6,0,0,0,8.41-2.32,28.73,28.73,0,0,0,7.24-7.14c1.29-1.66,2.52-3.37,3.86-5.17a3.31,3.31,0,0,1,.56.17c1.9.82,3.79,1.64,5.67,2.48,1.09.48,1.22.89.63,1.93a28.21,28.21,0,0,1-1.8,3c-2.84,3.81-5.7,7.63-9.53,10.53-4.86,3.67-10.3,5.73-16.45,5a14.85,14.85,0,0,1-12.15-8.68l-.35-.68a7.72,7.72,0,0,0-2.25,1.67,43.34,43.34,0,0,1-12.8,8.75,22,22,0,0,1-8.64,1.75c-5.94,0-10.37-2.74-13.38-7.82a17.12,17.12,0,0,1-2.43-8,11.23,11.23,0,0,0-.17-1.22,55.75,55.75,0,0,1-10.47,3.07,29.59,29.59,0,0,1-10.85-.62,13.81,13.81,0,0,0-.09,1.84,41.17,41.17,0,0,1-.39,9.92c-.53,3.82-1,7.66-1.76,11.43a78.9,78.9,0,0,1-4.44,14.09,71.42,71.42,0,0,1-6.76,12.83,35.72,35.72,0,0,1-9.34,9.76,14.6,14.6,0,0,1-8,2.79,9.62,9.62,0,0,1-9.6-7.16,17.73,17.73,0,0,1-.43-7.86,66.64,66.64,0,0,1,4.1-13.9c1.1-2.74,2.16-5.5,3.38-8.19,2.05-4.53,4.15-9.05,6.37-13.5,2.05-4.13,4.29-8.17,6.44-12.25.23-.43.4-.89.71-1.6-7.6,1.59-15,1.85-22.45-.6a14.67,14.67,0,0,0-.22,1.55,65.32,65.32,0,0,1-2.27,15.67c-.86,3.16-1.67,6.33-2.64,9.45a122,122,0,0,1-4.51,12.23,130.2,130.2,0,0,1-5.89,11.9c-2.59,4.63-5.43,9.11-9.37,12.74a17.71,17.71,0,0,1-3.61,2.52,8.49,8.49,0,0,1-12.16-5.84,22.08,22.08,0,0,1,.16-9.33,59.41,59.41,0,0,1,3.73-11.5c2.17-5,4.44-10,6.71-15,1.25-2.73,2.55-5.43,3.88-8.11s2.81-5.61,4.27-8.39c2.27-4.32,4.59-8.62,6.88-12.93.33-.62.64-1.26,1.1-2.18-.54.26-.8.36-1,.51-2,1.25-4,2.54-6.05,3.74a4.42,4.42,0,0,0-1.63,1.55,55,55,0,0,1-7.61,10.2A39.61,39.61,0,0,1,253,351.22a17.25,17.25,0,0,1-6.08.92,25.27,25.27,0,0,1-3.89-.27c-4.87-.79-8-3.79-10-8.13a41.83,41.83,0,0,1-1.37-4.18,9.66,9.66,0,0,0-.85.57,80,80,0,0,1-16.74,11.18,32.76,32.76,0,0,1-12.35,3.51,30.14,30.14,0,0,1-11.06-1A19.15,19.15,0,0,1,180.43,346a31.33,31.33,0,0,1-4-8.05,50.75,50.75,0,0,1-1.51-6.81,36.12,36.12,0,0,1,0-11.13,71.44,71.44,0,0,1,5-17.67,87.35,87.35,0,0,1,12.78-21.09c2.39-2.91,4.85-5.75,7.3-8.61A19,19,0,0,1,201.52,271.13Zm11.12.86a3.88,3.88,0,0,0,.36.46c.19.19.38.37.59.55a22.88,22.88,0,0,0,14,5.91,42.5,42.5,0,0,0,22.1-4.1,29,29,0,0,0,8.9-6.39,18.91,18.91,0,0,0,4.67-7.77,6.27,6.27,0,0,0-.49-5.19,5.47,5.47,0,0,0-3.68-2.51,30.15,30.15,0,0,0-6.8-.75,42.9,42.9,0,0,0-11.08,2,56.39,56.39,0,0,0-13.59,6.08,111.15,111.15,0,0,0-10.81,8C215.38,269.43,214.06,270.71,212.64,272Zm119.41,59.39a8.55,8.55,0,0,0-.55.78C328,338.77,324.36,345.33,321,352c-2.33,4.6-4.32,9.37-6.46,14.06a90.85,90.85,0,0,0-5.28,15.23,11.3,11.3,0,0,0-.14,5.33c.31,1.32.82,1.68,2.13,1.27a10,10,0,0,0,2.66-1.22,25.39,25.39,0,0,0,6.95-7.43,66.33,66.33,0,0,0,8.58-18.76c.52-1.85,1.09-3.7,1.45-5.59.49-2.6.86-5.22,1.17-7.85a53.28,53.28,0,0,0,.72-9.52A31.49,31.49,0,0,0,332.05,331.38Zm-82.43-17.47c-.4.43-.65.67-.87.94a46.3,46.3,0,0,0-5.37,8.52,25.17,25.17,0,0,0-3.11,11.18,13.22,13.22,0,0,0,.75,5.82c.59,1.29,1.34,2.51,2.84,2.85a11.85,11.85,0,0,0,7.52-.52,34.56,34.56,0,0,0,11.72-8.63c.72-.77,1.33-1.64,2.07-2.56C255.36,329.73,250.15,324,249.62,313.91ZM267,390.07a24.08,24.08,0,0,0,1.87-1.55,39,39,0,0,0,5.63-7.52A114.33,114.33,0,0,0,282,366c1-2.28,1.94-4.54,2.68-6.88,1.17-3.67,2.16-7.4,3.21-11.11a59.91,59.91,0,0,0,2.22-13.23c0-.33,0-.66,0-1a11.6,11.6,0,0,0-1.55,2.39c-2.78,5.32-5.63,10.61-8.32,16-2.07,4.12-4,8.33-5.9,12.52a134.18,134.18,0,0,0-6,14.52,34.4,34.4,0,0,0-1.76,7.3A7,7,0,0,0,267,390.07Zm62.95-114.4c-.55.29-1.08.51-1.56.82a25,25,0,0,0-5.46,4.75c-1.8,2.06-3.58,4.13-5.29,6.26a70.89,70.89,0,0,0-4.53,6c-3.18,4.93-6.22,10-9.3,14.95-.45.72-.84,1.49-1.35,2.41a7.37,7.37,0,0,0,.78-.13,41.52,41.52,0,0,0,10-5.22,52.06,52.06,0,0,0,11.73-11.74,30.72,30.72,0,0,0,4.45-7.79,19.7,19.7,0,0,0,1.31-6.56A7.42,7.42,0,0,0,329.94,275.67Zm12.17,38.61a8.13,8.13,0,0,0,.88-.43c1.94-1.28,3.9-2.55,5.81-3.88a63.09,63.09,0,0,0,16-16.33c2.43-3.51,3.48-7.53,4.24-11.65a7.46,7.46,0,0,0,0-1.34,4.31,4.31,0,0,0-3,1.24,65.89,65.89,0,0,0-5.54,5.28,75.78,75.78,0,0,0-5.83,7.54c-4.15,6.16-8.16,12.43-12.22,18.66A5.63,5.63,0,0,0,342.11,314.28ZM267,322.85c.45,0,.9,0,1.35,0,2.44-.24,2.72-.39,3.61-2.66,1.31-3.33,1.69-6.62,0-10a6.46,6.46,0,0,0-8.78-2.64,10.08,10.08,0,0,0-4,4,7,7,0,0,0,.44,7.54A7.91,7.91,0,0,0,267,322.85ZM375,319a8.7,8.7,0,0,0,9,.15,17,17,0,0,0,5.72-4.79,9.23,9.23,0,0,0,2-4.61,2.25,2.25,0,0,0-2.28-2.81,7.21,7.21,0,0,0-.93,0,8.87,8.87,0,0,0-4.12,1.5C380.22,310.94,377.49,314.77,375,319Zm36.14,2.91c1.07,0,1.91.08,2.74,0a14.86,14.86,0,0,0,5.38-2,14.31,14.31,0,0,0,7-8.21,3.86,3.86,0,0,0,.13-2.71,3.51,3.51,0,0,0-1.14-.17,17.51,17.51,0,0,0-3.38.8,15.84,15.84,0,0,0-6,4.62A26.44,26.44,0,0,0,411.14,321.86Z" transform="translate(-165.77 -227.1)"/><path class="cls-1" d="M417.45,521.46c1.21.11,2.33.2,3.44.32s1.27.23,1.47,1.36.39,2.3.54,3.46-.21,1.64-1.51,1.47c-3.25-.41-6.49-.88-9.73-1.32l-7.17-1c-.12-.93-.24-1.81-.34-2.69s-.19-1.68-.28-2.53c1-.75,2.08,0,3.23-.4-.46-4.34-1.29-8.67-1.88-13.14l-15.63.76c-.54,3.21-1.08,6.42-1.65,9.76l2.57.45c.31,0,.63.07.94.12,1.51.26,1.63.41,1.41,1.94-.1.67-.21,1.33-.35,2-.34,1.68-.53,1.82-2.28,1.57l-6.39-.93-4.92-.69c.09-1.77.17-3.48.25-5.29h3.42c.33-1.82.68-3.57,1-5.33q1.41-8.35,2.8-16.72c1.34-8.14,2.65-16.29,4-24.43,1-6.42,2.13-12.83,3.16-19.25.43-2.65.78-5.32,1.16-8a2.18,2.18,0,0,1,1.87-2c.84-.14,1.69-.25,2.53-.32,1.1-.08,1.25,0,1.47,1.09.39,1.89.68,3.8,1.07,5.68.74,3.65,1.49,7.29,2.3,10.92,1.12,5,2.32,10,3.45,15.07q1.78,7.93,3.49,15.88,1.89,8.88,3.71,17.78C415.53,511.82,416.47,516.56,417.45,521.46Zm-19.14-60.34h-.39c-2.48,13.74-5,27.48-7.48,41.46,4.76-.28,9.34-.42,14-.8C402.36,488.11,400.34,474.62,398.31,461.12Z" transform="translate(-165.77 -227.1)"/><path class="cls-1" d="M206,478.52c.15,5.15.24,10.31.46,15.46.22,4.92.53,9.83.89,14.74a41.69,41.69,0,0,0,1.72,9.89,14,14,0,0,0,1.16,2.56,1.55,1.55,0,0,0,2.39.59,4.66,4.66,0,0,0,2.19-3.26,43.6,43.6,0,0,0,.73-5.32c.15-2.77.15-5.55.15-8.33a4.81,4.81,0,0,0-3.52-4.84,6.2,6.2,0,0,0-2-.09c-1,0-1.16-.06-1.35-1.05-.11-.62-.2-1.24-.28-1.86a1.05,1.05,0,0,1,.91-1.28,19.54,19.54,0,0,1,2.26-.33c2.41-.19,4.82-.35,7.23-.5,1.3-.09,1.85.29,2,1.6a24.74,24.74,0,0,1,.2,3.75c-.15,5.25-.18,10.51-.59,15.73-.33,4.21-1.09,8.42-3.86,11.86s-7.28,4.81-11.35,2.25a9.62,9.62,0,0,1-4.17-5.5c-1.52-4.55-1.78-9.24-2-13.94-.18-3.23-.32-6.45-.35-9.68-.05-3.94,0-7.88,0-11.83,0-.85,0-1.7,0-2.55a15.27,15.27,0,0,0,0-2.79,14,14,0,0,1,0-2.82c0-1,0-2,0-3s0-1.88,0-2.83,0-2,0-3c.11-4.17.15-8.34.37-12.5a22.56,22.56,0,0,1,1.65-7.59,18.36,18.36,0,0,1,1.77-3.3,6.62,6.62,0,0,1,8.31-2.39,6.79,6.79,0,0,1,2.24,1.85,15.32,15.32,0,0,1,3.15,6.75c2.28,8.91,2.25,18,2.42,27.14a5,5,0,0,1,0,.67c-.14,1.16-.38,1.58-1.55,1.55-.9,0-1.8.12-2.69.11-1.44,0-2-.63-2-2.08,0-4.08.17-8.16.11-12.24,0-3-.25-5.92-.56-8.86a20.78,20.78,0,0,0-1.09-4.29c-.3-.91-.88-1.76-2-1.72s-1.33,1-1.58,1.79a23.47,23.47,0,0,0-1.08,6.34q-.16,6.66-.3,13.31c0,.58.06,1.16.09,1.74Z" transform="translate(-165.77 -227.1)"/><path class="cls-1" d="M225.76,481.93c0-4.83-.07-9.67,0-14.51A45.63,45.63,0,0,1,227.1,457a17.71,17.71,0,0,1,2.28-5.81c2.06-3.05,6.68-4,9.53-1.86a13.12,13.12,0,0,1,3.72,4.19,22.4,22.4,0,0,1,2.29,6.42,93.77,93.77,0,0,1,1.65,25c-.28,4.56-.48,9.13-.72,13.69-.14,2.55-.22,5.11-.46,7.65a57.78,57.78,0,0,1-1.51,9.95,12.24,12.24,0,0,1-5.18,7.26,5.22,5.22,0,0,1-5.51.25,9.16,9.16,0,0,1-3.93-3.89,23.35,23.35,0,0,1-2.4-9.67c-.28-3.57-.45-7.15-.59-10.73-.22-5.55-.37-11.09-.55-16.64,0-.31,0-.62,0-.94Zm11.09-25.1a1.92,1.92,0,0,0-1.38,1.68,40.26,40.26,0,0,0-1,5.41c-.34,3.93-.54,7.87-.71,11.82-.25,6-.4,11.92-.09,17.89.22,4.07.53,8.13.74,12.2a27.84,27.84,0,0,0,1.15,6.61,9.75,9.75,0,0,0,.73,1.73,1.5,1.5,0,0,0,1.39.92c.7,0,1-.5,1.31-1a1.47,1.47,0,0,0,.19-.49c.23-1.06.49-2.1.65-3.17,1-6.41.86-12.89.95-19.34s-.26-12.65-.41-19a48.7,48.7,0,0,0-1.7-11.7A7.06,7.06,0,0,0,236.85,456.83Z" transform="translate(-165.77 -227.1)"/><path class="cls-1" d="M248.77,482.4c.32-4.7.54-9.41,1-14.09a65.09,65.09,0,0,1,1.43-7.94,16.58,16.58,0,0,1,3-6.28,6.47,6.47,0,0,1,9-1.28,15.31,15.31,0,0,1,5.27,6.51A36.34,36.34,0,0,1,271,469.45a158.76,158.76,0,0,1,1.31,24.17,58.85,58.85,0,0,1-1.89,14.52,26.86,26.86,0,0,1-3.69,8,10.76,10.76,0,0,1-5.86,4.27,4.9,4.9,0,0,1-5.39-1.46,15.85,15.85,0,0,1-4-7.68c-.57-3.13-1-6.29-1.53-9.42C248.91,495.43,248.91,488.92,248.77,482.4Zm7.37-1.35c0,.54,0,1.08,0,1.61A98.07,98.07,0,0,0,258.84,504a13.48,13.48,0,0,0,2,4.69,1.44,1.44,0,0,0,2.49.12,6,6,0,0,0,1.13-2.1,24.74,24.74,0,0,0,.85-4.07c.4-3.51.73-7,1-10.55.23-2.77.5-5.55.51-8.32,0-3-.14-6.1-.42-9.13A35.81,35.81,0,0,0,264,464a13.54,13.54,0,0,0-1.41-2.59c-1-1.41-2.06-1.44-3.2-.19a6.19,6.19,0,0,0-.71,1,17.77,17.77,0,0,0-2.15,7A58.38,58.38,0,0,0,256.14,481.05Z" transform="translate(-165.77 -227.1)"/><path class="cls-1" d="M331.55,459.3c-.21-1.62-.41-3.13-.61-4.63a.88.88,0,0,1,.77-1.06c4.42-1.14,8.89-1.88,13.44-1.08a10.23,10.23,0,0,1,7.47,5.22,34.66,34.66,0,0,1,2.18,4.76A51.62,51.62,0,0,1,357.49,475a62.86,62.86,0,0,1-3,28,31.3,31.3,0,0,1-3.9,7.8,13.2,13.2,0,0,1-7.7,5.07,24,24,0,0,1-7.75.45,13.14,13.14,0,0,1-1.3-.25v-5.87h2.21c0-.41.08-.75.07-1.09-.16-11.49-.31-23-.52-34.46-.08-4.16-.34-8.33-.52-12.49,0-.49-.11-1-.17-1.47-.16-1.21-.27-1.31-1.53-1.35C332.8,459.28,332.19,459.3,331.55,459.3Zm11.2-1.1c.07,16,.13,31.93.2,47.84,0,.81.05,1.61.07,2.42,0,0,0,.07.07.09l.16.08a7.24,7.24,0,0,0,2.66-2.75,35.8,35.8,0,0,0,4.34-10.81,56.32,56.32,0,0,0,1.14-15.5,84.28,84.28,0,0,0-1.94-13.42,16.76,16.76,0,0,0-2.09-5.64C346.32,459,345,457.77,342.75,458.2Z" transform="translate(-165.77 -227.1)"/><path class="cls-1" d="M279.09,511.67c0-2.89,0-5.58,0-8.27,0-4.3.09-8.59.14-12.89.05-3.67.11-7.35.13-11,0-4.08.06-8.16,0-12.24,0-2.23-.25-4.45-.4-6.8-.91-.08-1.7-.14-2.49-.22-1.51-.15-1.69-.33-1.66-1.82,0-1,.1-2,.19-3a1.05,1.05,0,0,1,1.11-1.07,24,24,0,0,1,12.16,2.26,20.4,20.4,0,0,1,9.38,9.14,30.23,30.23,0,0,1,3,8.89,57.29,57.29,0,0,1,.83,13.4,34.24,34.24,0,0,1-1.94,9.86,36,36,0,0,1-3.55,7.82,34.86,34.86,0,0,1-7.1,8.21,15.74,15.74,0,0,1-8.22,3.41,28,28,0,0,1-4.3.08c-1,0-1.26-.3-1.45-1.26a21.57,21.57,0,0,1-.37-2.39c-.12-1.29.05-1.48,1.31-1.67Zm7.29-5,.32.11c.39-.43.81-.83,1.15-1.29a37.28,37.28,0,0,0,5.74-10.91,34.07,34.07,0,0,0,1.05-14.24A49.25,49.25,0,0,0,292,470.05a21.83,21.83,0,0,0-3-5.86,7.41,7.41,0,0,0-2.68-2.53Z" transform="translate(-165.77 -227.1)"/><path class="cls-1" d="M357.9,518.74v-5.81l3.71.56c0-.62,0-1.14,0-1.66-.11-8.17-.24-16.34-.33-24.51-.12-9.29-.19-18.59-.32-27.88,0-1.65-.17-3.29-.27-4.91l-4.77.28c-.11-1.86-.22-3.55-.3-5.24,0-.66.5-.77,1-.86,1.72-.3,3.45-.59,5.17-.9l13.11-2.38c1.27-.23,1.4-.14,1.5,1.14s.14,2.69.21,4c0,.64-.24,1-.9,1.1-1.71.35-3.41.77-5.11,1.17s-1.63.39-1.64,2q0,7.74-.08,15.49,0,4.58,0,9.16V481l5.43-.25c.05-.44.12-.83.13-1.22,0-.85,0-1.71,0-2.56s.16-1,1.05-1c1.07,0,2.15.1,3.23.15.64,0,.83.42.81,1-.07,1.66-.13,3.31-.19,5-.09,2.56-.17,5.12-.27,7.67,0,1.21-.14,1.32-1.31,1.39a12.87,12.87,0,0,1-2.15,0c-.85-.08-1.09-.34-1.12-1.21s0-2,0-3.14a23.87,23.87,0,0,0-5.39.33c-.3.94-.46,25.18-.18,27.55l8.12,1.44v5.58C370.63,521,364.32,519.71,357.9,518.74Z" transform="translate(-165.77 -227.1)"/><path class="cls-1" d="M317,461.82l-5.47.85c-.12-1.62-.26-3.2-.34-4.79,0-.7.36-1,1.06-1.12,3.41-.5,6.82-1,10.23-1.56l6.25-1a6.81,6.81,0,0,1,.74-.05v5.65l-4.86.83c.84,16.07,1.67,32.09,2.51,48.19,1.14.19,2.2.38,3.26.52.69.09,1.06.39,1,1.13-.06,1.56-.09,3.12-.13,4.66-1.06.23-15.16-1.94-17.71-2.72.09-1.55.19-3.14.28-4.75,1.09-.41,2,.12,3,.16s1.93.22,3.06.36C319.38,492.67,318.17,477.32,317,461.82Z" transform="translate(-165.77 -227.1)"/><path class="cls-1" d="M228.59,401.59a17.1,17.1,0,0,1-6.19,11.7c-2.56,2.22-5.63,2.36-8.63,1.28-3.8-1.36-7.85-5.87-7.39-11a8,8,0,0,1,2.08-5.13c1.44-1.46,2.93-1.17,3.61.76a14.37,14.37,0,0,1,.45,2.09c.1.53.19,1.06.3,1.58a2.88,2.88,0,0,0,2.48,2.34,3.47,3.47,0,0,0,3.41-1.11,4.28,4.28,0,0,0,1.1-2.55c.2-1.95-.34-3.82-.57-5.73a37.51,37.51,0,0,1-.5-6.15c.19-4.28,3.47-10.36,10.06-11.38a8.71,8.71,0,0,1,9.33,6.51,8.89,8.89,0,0,1-3.19,8.86,4.24,4.24,0,0,1-.91.55,2.37,2.37,0,0,1-2.65-.29,2.08,2.08,0,0,1-.45-2.36c.13-.43.27-.85.43-1.27a4.74,4.74,0,0,0-.07-3.3,1.43,1.43,0,0,0-2.44-.69,4.37,4.37,0,0,0-1.15,1.6,8.61,8.61,0,0,0,0,5.54A36.47,36.47,0,0,1,228.59,401.59Z" transform="translate(-165.77 -227.1)"/><path class="cls-1" d="M299.4,427.74c-.66,1.47-1.17,2.65-1.71,3.83-.82,1.79-1.63,3.59-2.51,5.35a6.44,6.44,0,0,1-1.35,1.83,2.48,2.48,0,0,1-3.87-.7,8,8,0,0,1-.85-3.77c-.12-3-.19-6.1-.3-9.15-.15-4.35-.34-8.7-.47-13.05a31.55,31.55,0,0,1,.13-3.36,5.77,5.77,0,0,1,.39-1.69,1.85,1.85,0,0,1,3.32-.43,6.73,6.73,0,0,1,.88,2.36,16.49,16.49,0,0,1,.25,2.81q.31,8.34.61,16.68a1.37,1.37,0,0,0,.27.84l.18-.35c.95-2,1.92-4.05,2.82-6.1a2.24,2.24,0,0,0-.06-1.25,41.45,41.45,0,0,1-1.23-4.94,5.33,5.33,0,0,1,2.52-5.56,3.58,3.58,0,0,1,5.29,1.64,5.85,5.85,0,0,1,.33,4.34,53,53,0,0,1-2,5.26,2.14,2.14,0,0,0-.09,2c.9,1.85,1.73,3.75,2.6,5.62.18.38.41.74.77,1.38.38-1.61.67-2.9,1-4.19,1.12-4.43,2.23-8.87,3.4-13.29.48-1.81,1.1-3.6,1.71-5.38a3.54,3.54,0,0,1,.87-1.32,1.34,1.34,0,0,1,2.25.38A3.66,3.66,0,0,1,315,410c-.31,1.82-.57,3.64-1,5.43q-2.46,10.76-5,21.48a10.18,10.18,0,0,1-.68,2,1.73,1.73,0,0,1-3.05.47,7.79,7.79,0,0,1-1.29-1.87c-1.24-2.58-2.43-5.2-3.63-7.8C300.06,429.19,299.8,428.62,299.4,427.74Zm.8-13c-1.3.8-1.43,1.69-.59,3.49C300.06,417.1,300.63,416.11,300.2,414.74Z" transform="translate(-165.77 -227.1)"/><path class="cls-1" d="M404.4,398.56l-6.16,5.19a18.21,18.21,0,0,1,.68,2.63,14.27,14.27,0,0,1,0,3.2,2.35,2.35,0,0,1-1.5,1.92,1.7,1.7,0,0,1-2.29-.47,9.71,9.71,0,0,1-1.45-2.56c-1.1-3.22-2.11-6.47-3.12-9.72-1.37-4.4-2.77-8.8-4.06-13.23-.73-2.49-1.27-5-1.88-7.56a3.2,3.2,0,0,1-.05-1.07,2,2,0,0,1,1.91-1.77,4,4,0,0,1,2.86,1c1.65,1.3,3.3,2.61,4.89,4a143.58,143.58,0,0,1,14.58,14.5c.64.74,1.37,1.42,2,2.2a9,9,0,0,1,1.22,2.06,2.2,2.2,0,0,1-.66,2.78,2.67,2.67,0,0,1-3,.31,8.19,8.19,0,0,1-1.5-1.13C406.05,400.09,405.27,399.36,404.4,398.56Zm-11.15-11.43-.27.14,3.22,10.66,4.27-3.46Z" transform="translate(-165.77 -227.1)"/><path class="cls-1" d="M368,426.89c-4.73.08-8.24-2.93-9.05-7.84a14.46,14.46,0,0,1,0-3.6,3.68,3.68,0,0,1,.73-1.7,2.08,2.08,0,0,1,3.51,0,4.73,4.73,0,0,1,.87,2.79,6.69,6.69,0,0,0,1,3.43,2.9,2.9,0,0,0,2.68,1.5,2.4,2.4,0,0,0,2.5-2.44,4.76,4.76,0,0,0-1.74-4.06c-1.34-1.12-2.81-2.09-4.18-3.17a53.1,53.1,0,0,1-4.55-3.76,11,11,0,0,1-2.18-11.5,7.3,7.3,0,0,1,8.44-4.18,8.61,8.61,0,0,1,5.67,5,7.18,7.18,0,0,1,.64,5.48,4.61,4.61,0,0,1-1.07,1.81,1.66,1.66,0,0,1-2.83-.33,18.18,18.18,0,0,1-1.09-2.74,8.1,8.1,0,0,0-.65-1.75,6.75,6.75,0,0,0-1.64-1.73,1.9,1.9,0,0,0-2.27.1,1.86,1.86,0,0,0-.8,2,5.44,5.44,0,0,0,2,3.26c2,1.74,4,3.46,6.06,5.11a23,23,0,0,1,4.33,4.59,9.93,9.93,0,0,1,1.94,7.09c-.49,4.18-4.3,6.31-7.14,6.63C368.77,426.93,368.36,426.89,368,426.89Z" transform="translate(-165.77 -227.1)"/><path class="cls-1" d="M256.25,424.32l-4.62-1.81-.85,1.48c-1.07,1.82-2.06,3.68-3.22,5.43a2.46,2.46,0,0,1-3.43.82,1.48,1.48,0,0,1-.92-1.86,7.48,7.48,0,0,1,.66-1.76c2.42-4.71,4.81-9.43,7.3-14.1,1.87-3.52,3.84-7,5.83-10.46a12.8,12.8,0,0,1,2-2.67c1.14-1.15,2.34-.86,2.91.69a7.33,7.33,0,0,1,.42,2.63c0,3.72,0,7.45-.21,11.17-.34,5.82-.86,11.63-1.32,17.44a6.46,6.46,0,0,1-.33,1.57,1.72,1.72,0,0,1-1.77,1.37,1.94,1.94,0,0,1-2-1.47,22.85,22.85,0,0,1-.43-3.59C256.2,427.63,256.25,426.06,256.25,424.32Zm1.36-13.2-.26-.09c-.44.76-.89,1.51-1.31,2.27q-1.29,2.43-2.56,4.87c-.25.47-.43,1,.23,1.22.94.34,1.92.59,3,.9C257,417.13,257.31,414.12,257.61,411.12Z" transform="translate(-165.77 -227.1)"/><path class="cls-1" d="M329.32,431.73l-5.81,1.12c-.26,1.58-.48,3.09-.76,4.58a7,7,0,0,1-.55,1.79,1.92,1.92,0,0,1-2,1,1.79,1.79,0,0,1-1.53-1.33,6.84,6.84,0,0,1-.15-3.33c.6-5.75,1.19-11.5,1.86-17.25.33-2.8.81-5.59,1.23-8.38a3.62,3.62,0,0,1,1.25-2.31c.84-.72,1.61-.84,2.37-.05a8.68,8.68,0,0,1,1.8,2.63c1.57,3.95,3.08,7.94,4.48,12s2.71,8.17,4,12.25a5.1,5.1,0,0,1,.24.91,2.3,2.3,0,0,1-1,2.33,2.15,2.15,0,0,1-2.6-.39,3.76,3.76,0,0,1-.73-1c-.49-1-.94-1.93-1.4-2.9C329.82,432.92,329.61,432.39,329.32,431.73Zm-4.17-12.32-.23,0-1,9.24L328,428Z" transform="translate(-165.77 -227.1)"/><path class="cls-1" d="M221.74,373a3.67,3.67,0,0,1-.83,2.31c-1.6,2.11-3.18,4.23-4.87,6.26a98.48,98.48,0,0,0-6.69,9.42c-.61.94-1.28,1.84-2,2.73-1.8,2.35-3.58,4.7-5.45,7a24.16,24.16,0,0,1-2.42,2.32c-1.16,1.08-3.54.6-4.41-.73a2,2,0,0,1-.38-1.23,8.9,8.9,0,0,1,.7-2.84,35.78,35.78,0,0,1,2.8-4.42q4.29-5.85,8.7-11.62,3.7-4.86,7.55-9.63a12.21,12.21,0,0,1,2.32-2.22,3.05,3.05,0,0,1,3.15-.57C221.27,370.39,221.74,371.48,221.74,373Z" transform="translate(-165.77 -227.1)"/><path class="cls-1" d="M345.71,415.55c-.13-1.43-.25-2.85-.39-4.28-.2-2-.44-4.1-.62-6.16a6.09,6.09,0,0,1,.08-1.86,1.81,1.81,0,0,1,3-1.18,5.62,5.62,0,0,1,1.62,2.08,15.42,15.42,0,0,1,1.09,5.78c.32,4.88.54,9.77.84,14.65.14,2.29.38,4.56.52,6.85a4.32,4.32,0,0,1-.17,1.72,3.88,3.88,0,0,1-1,1.54,1.75,1.75,0,0,1-2.9-.62,11.68,11.68,0,0,1-1-3.33,55.62,55.62,0,0,1-.34-5.64,2.8,2.8,0,0,0-.81-2q-4.94-5.32-9.8-10.73a15.08,15.08,0,0,1-1.89-2.61,1.84,1.84,0,0,1,.14-2.47,2,2,0,0,1,2.59-.25,16.14,16.14,0,0,1,2.93,2.33c1.75,1.8,3.39,3.7,5.07,5.57.24.26.45.55.67.82Z" transform="translate(-165.77 -227.1)"/><path class="cls-1" d="M273.46,432.79c1.78.41,3.35.74,4.91,1.12.95.23,1.9.51,2.84.8a4.92,4.92,0,0,1,1.08.53,1.84,1.84,0,0,1,1.09,2,1.93,1.93,0,0,1-1.62,1.61,6.69,6.69,0,0,1-2.52.06c-3.2-.68-6.38-1.44-9.55-2.23-1.68-.42-2.09-1.05-1.74-2.73.52-2.41,1.14-4.79,1.71-7.19,1.08-4.63,2.11-9.27,3.27-13.87.58-2.29,1.39-4.53,2.12-6.78a6,6,0,0,1,.62-1.2,1.95,1.95,0,0,1,3.7.75,10.09,10.09,0,0,1-.1,2.8c-.32,1.71-.79,3.4-1.19,5.1-1.18,5-2.34,10-3.53,15C274.23,429.93,273.86,431.27,273.46,432.79Z" transform="translate(-165.77 -227.1)"/><path class="cls-1" d="M212.49,422.67a1.17,1.17,0,0,1-1.21,1c-3.07.3-6.14.71-9.23.86-2.63.12-5.28,0-7.93-.1a121.84,121.84,0,0,1-19.9-1.94,25.23,25.23,0,0,1-6.42-1.9,3.85,3.85,0,0,1-.81-.48,1,1,0,0,1,0-1.6,3.23,3.23,0,0,1,2.64-.75c1.46.17,2.93.39,4.39.6,3.33.48,6.64,1,10,1.42,3.78.46,7.57.82,11.36,1.22s7.76.82,11.64,1.18c1.25.12,2.52.06,3.77.14A13.94,13.94,0,0,1,212.49,422.67Z" transform="translate(-165.77 -227.1)"/><path class="cls-1" d="M213.54,431.07a1.71,1.71,0,0,1-1.37,1.5,47.85,47.85,0,0,0-10.6,5.2c-3.47,2.31-6.8,4.84-10.2,7.25-1.68,1.2-3.38,2.36-5.08,3.53a6,6,0,0,1-.7.4c-.49.26-1,.53-1.47,0a1,1,0,0,1,.18-1.36,42.35,42.35,0,0,1,3.56-4,49.89,49.89,0,0,1,12.55-8,56.23,56.23,0,0,1,11-4.21C212.08,431.22,212.74,431.18,213.54,431.07Z" transform="translate(-165.77 -227.1)"/><path class="cls-1" d="M362.63,371.63a5.68,5.68,0,0,1-.9.77,6.69,6.69,0,0,0-2.88,3.43,12.88,12.88,0,0,0-1.13,5.08,7.1,7.1,0,0,1-.18,1.2l-.35,0a3.78,3.78,0,0,1-.38-.88c-.13-.88-.21-1.77-.28-2.67-.26-3-1.37-5.37-4.46-6.38a.74.74,0,0,1-.22-.14,1.33,1.33,0,0,1-.13-.2c.08-.17.13-.5.31-.6,3-1.68,3.91-4.51,4.11-7.68.15-2.41.21-4.83.32-7.25,0-.42.1-.84.15-1.3.71.18.62.62.66,1,.25,2.31.49,4.62.75,6.94a11.58,11.58,0,0,0,4.21,8.12A3.69,3.69,0,0,1,362.63,371.63Z" transform="translate(-165.77 -227.1)"/><path class="cls-1" d="M196.7,414.12c-.36,1-.95.78-1.47.76a41.38,41.38,0,0,1-9.95-1.45A58.12,58.12,0,0,1,172,408.08a12.57,12.57,0,0,1-4.16-3.55,2.53,2.53,0,0,1-.53-.92,1.49,1.49,0,0,1,.15-1.1,1.16,1.16,0,0,1,1.06-.24,44.45,44.45,0,0,1,4.12,2,110.37,110.37,0,0,0,17.06,8.17,50,50,0,0,0,5.63,1.27C195.75,413.79,196.19,414,196.7,414.12Z" transform="translate(-165.77 -227.1)"/><path class="cls-1" d="M397.57,433.26a4.26,4.26,0,0,1,.78-.37,46.4,46.4,0,0,1,8.75-1.41c2.5-.19,5-.44,7.51-.43A41.35,41.35,0,0,1,428,432.92a6.67,6.67,0,0,1,1.87,1,1,1,0,0,1-.41,1.8,6.66,6.66,0,0,1-2.38.24c-3.16-.4-6.3-.88-9.45-1.37a67.84,67.84,0,0,0-13.49-1.13c-1.34.06-2.68.17-4,.21-.82,0-1.66,0-2.49-.07Z" transform="translate(-165.77 -227.1)"/><path class="cls-1" d="M195.82,429.75c-.28.82-.89.78-1.46.81A37.52,37.52,0,0,0,183,433.18c-2.78,1-5.49,2.21-8.24,3.3-1.33.53-2.68,1-4,1.51a10.63,10.63,0,0,1-1.57.4,1.45,1.45,0,0,1-1.68-.77,1.28,1.28,0,0,1,.61-1.51,21.55,21.55,0,0,1,2.94-1.88,45.35,45.35,0,0,1,11.47-3.75,72,72,0,0,1,11.63-1.19A2.08,2.08,0,0,1,195.82,429.75Z" transform="translate(-165.77 -227.1)"/><path class="cls-1" d="M400.64,427.38c1.27-.48,2.25-.91,3.26-1.22a103.72,103.72,0,0,0,20.22-9,14.34,14.34,0,0,1,2.08-.93c.6-.23,1.27-.37,1.73.24a1.21,1.21,0,0,1-.28,1.69,21.66,21.66,0,0,1-3.13,2.7,39.26,39.26,0,0,1-11,4.56c-3.31.93-6.68,1.66-10,2.43a8.88,8.88,0,0,1-2.13.1C401.2,428,401.05,427.75,400.64,427.38Z" transform="translate(-165.77 -227.1)"/><path class="cls-1" d="M392.82,423.16a2.34,2.34,0,0,1,1.34-1.33c3.89-1.47,7.33-3.76,10.83-5.92a55.3,55.3,0,0,0,7.7-5.84,5.69,5.69,0,0,1,1.39-1,1.76,1.76,0,0,1,1.37,0c.22.12.27.83.16,1.19a5.68,5.68,0,0,1-.89,1.64,27.82,27.82,0,0,1-11.07,8.52,36.25,36.25,0,0,1-8.23,2.83c-.82.15-1.65.2-2.47.3Z" transform="translate(-165.77 -227.1)"/><path class="cls-1" d="M235.48,408.73a17.19,17.19,0,0,1,.93-2.84,3.71,3.71,0,0,1,6.3-.35,5.07,5.07,0,0,1-.74,6.72,3.87,3.87,0,0,1-5.61-1A13.7,13.7,0,0,1,235.48,408.73Z" transform="translate(-165.77 -227.1)"/><path class="cls-1" d="M404.45,437.88a3.92,3.92,0,0,1,1-.05c6.25,1.23,12.13,3.29,17,7.62a15.11,15.11,0,0,1,2.11,2.59c.17.25,0,.73,0,1.11a3,3,0,0,1-1.13-.06,16.64,16.64,0,0,1-2.15-1.37,93.19,93.19,0,0,0-10-6.52,22.94,22.94,0,0,0-5.44-2.27,10.29,10.29,0,0,1-1.38-.57Z" transform="translate(-165.77 -227.1)"/><path class="cls-1" d="M425.5,372.88c.25.79.54,1.57.74,2.38a4.58,4.58,0,0,0,2.81,3.67c.11,0,.18.18.27.29a12.87,12.87,0,0,0-3,6.42c-.8-.14-.8-.72-1-1.13a6.26,6.26,0,0,0-3.28-3.57l-1.14-.45a1.19,1.19,0,0,1,.83-1.15c2.51-.81,3-2.85,3.18-5.1,0-.46.1-.93.15-1.39Z" transform="translate(-165.77 -227.1)"/><path class="cls-1" d="M179.81,467.38a12.4,12.4,0,0,1,.35,1.33c.2,1.19.38,2.38.51,3.58a7,7,0,0,0,1.83,4.09,4.42,4.42,0,0,1,.41.62c-.81.72-1.61,1.33-2.29,2.06s-.4,2-1.37,2.79c-.33-1.31-.56-2.51-.93-3.67a4.22,4.22,0,0,0-2.57-2.44.78.78,0,0,1,.53-1c1.7-.81,2.26-2.33,2.58-4,.14-.75.19-1.51.32-2.26a9.68,9.68,0,0,1,.27-1.06Z" transform="translate(-165.77 -227.1)"/><path class="cls-1" d="M247.3,376.39c-.08-.52-.16-.85-.19-1.18a5.31,5.31,0,0,0-1.89-3.86c-.74-.6-.67-1.09.2-1.26,2.18-.42,3-2.08,3.69-3.86.19-.48.31-1,.46-1.49l.28,0a2.11,2.11,0,0,1,.34.71c0,.62,0,1.25,0,1.87,0,2.08.09,2.29,1.61,5.39-.87.45-1.77.88-2.63,1.37S248.44,375.85,247.3,376.39Z" transform="translate(-165.77 -227.1)"/><path class="cls-1" d="M377.3,399.48a3.27,3.27,0,0,1,3.06-3.57,3.43,3.43,0,0,1,3.3,3.13c0,1.63-1.56,3.61-3,3.64A3.16,3.16,0,0,1,377.3,399.48Z" transform="translate(-165.77 -227.1)"/><path class="cls-1" d="M327.39,532.57c.72-.17.81.35,1,.75.49,1.25,1,2.51,1.42,3.77l7.71,21.5a16,16,0,0,1,.53,1.66,3.24,3.24,0,0,1-.1.91c-.29-.32-.5-.44-.56-.62q-5-13.68-10-27.37C327.25,533,327.37,532.76,327.39,532.57Z" transform="translate(-165.77 -227.1)"/><path class="cls-1" d="M347.76,262.61a5.15,5.15,0,0,1,.18-1c1.7-4.39,11.75-24.89,12.69-25.91.54.23.24.59.11.89-1,2.2-2,4.42-3,6.6q-4.32,9.12-8.67,18.21C348.84,261.87,348.76,262.55,347.76,262.61Z" transform="translate(-165.77 -227.1)"/><path class="cls-1" d="M267.32,554a3.61,3.61,0,0,1,.46-2.16c1-2.91,2.09-5.82,3.16-8.71,1.39-3.74,2.79-7.47,4.23-11.18.17-.44.16-1.43,1-1.09.64.26.12,1,0,1.42q-3.72,9.93-7.51,19.84c-.26.68-.62,1.32-.93,2Z" transform="translate(-165.77 -227.1)"/><path class="cls-1" d="M291.19,235.93c.85,1.11,4.23,12.77,6.43,22.18a12.92,12.92,0,0,1,.17,1.5c-.44-.23-.72-.29-.83-.46a2.88,2.88,0,0,1-.31-.88q-2.67-10-5.32-20c-.2-.76-.31-1.54-.46-2.32Z" transform="translate(-165.77 -227.1)"/><path class="cls-1" d="M300.83,566.06a1.63,1.63,0,0,1-.12-.47Q302.36,549.81,304,534c0-.11.16-.2.37-.46a3.29,3.29,0,0,1,.24.92q-.88,8.76-1.82,17.52c-.45,4.28-.95,8.55-1.43,12.82-.05.43-.15.85-.23,1.28Z" transform="translate(-165.77 -227.1)"/><path class="cls-1" d="M325.08,227.1c.34,1,.85,30.11.61,31.71,0,.15-.19.27-.32.43C324.93,257.91,324.63,229,325.08,227.1Z" transform="translate(-165.77 -227.1)"/><path class="cls-1" d="M315.68,551.65c-.65-1.19-1.73-8.12-2.57-15.85a10.59,10.59,0,0,1,0-1.26l.28-.07c.14.18.38.35.41.55q1.05,7.86,2,15.72A3.51,3.51,0,0,1,315.68,551.65Z" transform="translate(-165.77 -227.1)"/><path class="cls-1" d="M337.93,242.92c.35,1.37-1.36,9.43-3.11,15.61a1.23,1.23,0,0,1-.66.74,3.7,3.7,0,0,1-.06-.93q1.72-7.39,3.49-14.76A2.59,2.59,0,0,1,337.93,242.92Z" transform="translate(-165.77 -227.1)"/><path class="cls-1" d="M361,540.54c-2.52-4.07-5-8-7.32-12.1-.09-.16-.05-.4.16-.75a3.28,3.28,0,0,1,.64.65c1.5,2.39,3,4.78,4.46,7.18.77,1.26,1.52,2.53,2.28,3.8C361.41,539.65,361.71,540,361,540.54Z" transform="translate(-165.77 -227.1)"/><path class="cls-1" d="M291.72,534a4.56,4.56,0,0,1,0,1.1q-1.09,5.13-2.23,10.23a4.06,4.06,0,0,1-.43.86c-.73-.31-.48-.84-.4-1.27q.63-3.23,1.31-6.45c.24-1.14.48-2.28.76-3.41a8.74,8.74,0,0,1,.46-1.16Z" transform="translate(-165.77 -227.1)"/><path class="cls-1" d="M373.32,270a1.53,1.53,0,0,1,.39-1.8q3.07-4.14,6.18-8.27c.5-.67,1-1.33,1.52-2,.64.15.56.5.34.82-.49.7-1,1.38-1.51,2.05L374,269.12Z" transform="translate(-165.77 -227.1)"/><path class="cls-1" d="M311.23,245.61c.8.17.71.7.76,1.1q.4,2.85.75,5.7c.16,1.37.31,2.75.43,4.12a7.32,7.32,0,0,1-.12,1.23l-.3.06c-.15-.23-.41-.44-.44-.68-.41-3.51-.79-7-1.16-10.52A6.56,6.56,0,0,1,311.23,245.61Z" transform="translate(-165.77 -227.1)"/><path class="cls-1" d="M170.2,361.59c0-1.27.58-2.06,1.57-2a2.08,2.08,0,0,1,2,1.95,2.13,2.13,0,0,1-1.8,2A1.73,1.73,0,0,1,170.2,361.59Z" transform="translate(-165.77 -227.1)"/><path class="cls-1" d="M265.35,527.33c-1.88,3.17-3.76,6.31-5.63,9.45l-.31,0a2.25,2.25,0,0,1-.14-.75,2.59,2.59,0,0,1,.38-.85q2.25-3.82,4.51-7.64C264.38,527.11,264.62,526.63,265.35,527.33Z" transform="translate(-165.77 -227.1)"/><path class="cls-1" d="M341.57,529.53a3.34,3.34,0,0,1,.58.61q2.46,4.61,4.89,9.24a1.28,1.28,0,0,1,.16.5.38.38,0,0,1-.16.33c-.15,0-.42.08-.48,0a8.21,8.21,0,0,1-.72-1.12Q343.76,535,341.7,531a9.26,9.26,0,0,1-.42-1.29Z" transform="translate(-165.77 -227.1)"/><path class="cls-1" d="M367.75,256.5c0,.51.14.81,0,1a16.44,16.44,0,0,1-.93,1.47c-1.46,2.24-2.92,4.48-4.4,6.72-.28.41-.62.78-.94,1.18l-.27-.16a2.72,2.72,0,0,1,.18-.83c1.89-3,3.8-5.94,5.7-8.9C367.2,256.88,367.33,256.83,367.75,256.5Z" transform="translate(-165.77 -227.1)"/><path class="cls-1" d="M281.8,252.08a3.11,3.11,0,0,1,.45.58q2,4.18,3.91,8.37c.17.37.57.78-.17,1.23a12.77,12.77,0,0,1-1.73-3.21c-.58-1.11-1.11-2.25-1.61-3.39s-1.23-2.16-1.17-3.45Z" transform="translate(-165.77 -227.1)"/><path class="cls-1" d="M442.57,366.76a1.58,1.58,0,0,1-1.67-1.67,1.62,1.62,0,0,1,1.56-1.77,1.79,1.79,0,0,1,1.65,1.75A1.71,1.71,0,0,1,442.57,366.76Z" transform="translate(-165.77 -227.1)"/><path class="cls-1" d="M231.27,364.89a1.62,1.62,0,0,1,1.47,1.73c-.06.9-.83,1.76-1.55,1.71a1.6,1.6,0,0,1-1.41-1.91C229.85,365.46,230.43,364.85,231.27,364.89Z" transform="translate(-165.77 -227.1)"/><path class="cls-1" d="M402.68,357.7c-.66,1-.94,1.14-1.66.88a1,1,0,0,1-.66-1.17,1.1,1.1,0,0,1,.92-1C401.9,356.24,402.17,356.51,402.68,357.7Z" transform="translate(-165.77 -227.1)"/><path class="cls-1" d="M434.16,407a.86.86,0,0,1-.9-1,1.3,1.3,0,0,1,1.27-1.42,1,1,0,0,1,.86,1A1.4,1.4,0,0,1,434.16,407Z" transform="translate(-165.77 -227.1)"/><path class="cls-1" d="M194.44,373.13c0-.7.33-1.09.89-1.08a1.27,1.27,0,0,1,1.17,1.22,1.12,1.12,0,0,1-1,1.14C194.81,374.41,194.43,373.93,194.44,373.13Z" transform="translate(-165.77 -227.1)"/><path class="cls-1" d="M167.76,384.79c-.32.64-.52,1.34-1.36,1.09a1.13,1.13,0,0,1-.61-.76.91.91,0,0,1,.66-1C166.94,383.88,167.08,384,167.76,384.79Z" transform="translate(-165.77 -227.1)"/><path class="cls-2" d="M205.94,271.64c-.49-.76-.91-1.44-1.36-2.1a30.39,30.39,0,0,1-3.36-6.72,20.72,20.72,0,0,1-.71-11.54,29.66,29.66,0,0,1,5.19-11,2.26,2.26,0,0,1,1.8-1.3,3.23,3.23,0,0,1-.27.83,35.43,35.43,0,0,0-4.41,7.84A20.09,20.09,0,0,0,203,264a36,36,0,0,0,3.88,6.73c1.12-1,2.13-1.89,3.21-2.73,2.43-1.92,4.81-3.9,7.35-5.66,3.17-2.19,6.39-4.33,9.74-6.22a66.59,66.59,0,0,1,20-7.62,27.57,27.57,0,0,1,10.71-.19,15,15,0,0,1,5.56,2.29,9.11,9.11,0,0,1,3.82,10.69A25.84,25.84,0,0,1,260.71,272a42.77,42.77,0,0,1-17.83,10.66,35.49,35.49,0,0,1-14.74,1.65,30.59,30.59,0,0,1-20.46-10.45l-1-1.09c-.73.73-1.43,1.42-2.12,2.12a108.47,108.47,0,0,0-10.93,13.45c-1.82,2.55-3.67,5.1-5.33,7.76a60.42,60.42,0,0,0-6.82,15.15,69.73,69.73,0,0,0-2.27,11.33,34,34,0,0,0,.57,10.83c1.27,6.05,4.91,10.25,10,13.34a18.58,18.58,0,0,0,9.45,2.66,32.62,32.62,0,0,0,13.05-2.77,35.78,35.78,0,0,0,7.92-4.27c2.56-1.87,4.88-4.07,7.3-6.13a.81.81,0,0,1,.09-.1c.33-.3.64-1,1.15-.47s-.15.89-.46,1.22a45.61,45.61,0,0,1-17.91,11.81,29.17,29.17,0,0,1-13.87,1.77,20,20,0,0,1-9.71-4.32,21.23,21.23,0,0,1-7.38-9.73,30.83,30.83,0,0,1-1.46-7.51,43.67,43.67,0,0,1,.88-11.63,63.22,63.22,0,0,1,6.16-17.87A97,97,0,0,1,193.79,286c1.31-1.77,2.65-3.51,4-5.25a77.86,77.86,0,0,1,7.75-8.59C205.65,272,205.75,271.88,205.94,271.64Zm1.65.13a29.16,29.16,0,0,0,14.83,10.17,33.31,33.31,0,0,0,19.5-.15,41.93,41.93,0,0,0,11.68-5.41,32.49,32.49,0,0,0,10.07-9.94,17.52,17.52,0,0,0,2.72-6.39c.47-3.1-.22-5.77-2.8-7.81a14.57,14.57,0,0,0-8.6-3.05,37.3,37.3,0,0,0-12.85,1.88A75.71,75.71,0,0,0,227,257.66a124.22,124.22,0,0,0-14,9.51C211.13,268.59,209.43,270.18,207.59,271.77Z" transform="translate(-165.77 -227.1)"/><path class="cls-2" d="M300,316c.1-.12.14-.23.21-.25a27.83,27.83,0,0,0,7.53-3.15A73.7,73.7,0,0,0,321,303.11,46.67,46.67,0,0,0,332.76,287c.69-1.61,1.4-3.21,1.94-4.87a13.21,13.21,0,0,0,.53-5.45c-.37-3.59-3-4.84-6.06-3.83A18.44,18.44,0,0,0,325,275a35.77,35.77,0,0,0-7.39,6.83A138.76,138.76,0,0,0,305.51,298c-4.57,7.19-9,14.47-13.06,21.95-2.38,4.37-4.86,8.69-7.2,13.09-3.5,6.61-7,13.23-10.34,19.93-2.2,4.45-4.16,9-6.11,13.61-1.32,3.09-2.49,6.24-3.6,9.41a39.54,39.54,0,0,0-2,9.87,10.75,10.75,0,0,0,.63,4.76,2.85,2.85,0,0,0,4,1.83,17.1,17.1,0,0,0,6.62-4.49,38.48,38.48,0,0,0,5.83-8,106.46,106.46,0,0,0,9.66-22,85.85,85.85,0,0,0,3.12-14.18c.5-3.68.87-7.39,1.09-11.1a55.62,55.62,0,0,0-.29-6.17c0-.47,0-.94,0-1.46a2.14,2.14,0,0,1,.55.1,21,21,0,0,0,10.12,3.26,55.5,55.5,0,0,0,20.11-2c.86-.23,1.7-.57,2.56-.84a2.13,2.13,0,0,1,1-.07,9.7,9.7,0,0,1-3.58,1.67,52.47,52.47,0,0,1-16,2.32c-4.6-.07-9.13-.58-13.31-2.75a1.27,1.27,0,0,0-.43-.06c.13,1.59.32,3.14.38,4.7a66.65,66.65,0,0,1-1,12.45,93.62,93.62,0,0,1-2.95,13.66,111.08,111.08,0,0,1-9.79,22.68,62.36,62.36,0,0,1-4.76,7,18.44,18.44,0,0,1-8.51,6.36c-2.8,1-4.51-.3-5.28-2.22a14.31,14.31,0,0,1-.64-7.16A58.67,58.67,0,0,1,266.9,368c2.79-6.61,5.67-13.19,9-19.56,2.49-4.77,5-9.55,7.54-14.27,4.17-7.64,8.32-15.28,12.66-22.83a213.38,213.38,0,0,1,12.35-19.4,107.55,107.55,0,0,1,11.64-14.09c2.48-2.42,5.11-4.67,8.47-5.81a7.33,7.33,0,0,1,2-.39c3.28-.24,5.3,1.42,5.73,4.7a14.28,14.28,0,0,1-.75,6.89A49.88,49.88,0,0,1,326,299.37a70.09,70.09,0,0,1-20,15.09,15.92,15.92,0,0,1-5.19,1.79,2.91,2.91,0,0,1-.66,0C300.13,316.25,300.08,316.14,300,316Z" transform="translate(-165.77 -227.1)"/><path class="cls-2" d="M334.5,326.86c.22,0,.44-.07.54,0a8.15,8.15,0,0,0,3.47,1.39,48.1,48.1,0,0,0,9.31,1.3,27.66,27.66,0,0,0,10.83-1.72c1.47-.54,3-1,4.46-1.51.26-.08.56-.09,1.13-.19-.34.42-.45.67-.64.78a12.17,12.17,0,0,1-1.45.71,33.6,33.6,0,0,1-15.22,2.77,41.63,41.63,0,0,1-11.14-2.07,2.13,2.13,0,0,0-.08.51,128.34,128.34,0,0,1,.54,15.06,69.6,69.6,0,0,1-2.91,19.22,78.39,78.39,0,0,1-4.07,11.52,52.64,52.64,0,0,1-9.51,13.78,12.66,12.66,0,0,1-8.22,4.17c-3.4.29-5.73-1.16-6.78-4.42a12.7,12.7,0,0,1-.6-3.16,31.79,31.79,0,0,1,1.52-10.87,135.82,135.82,0,0,1,14.26-31.26c7.19-11.69,14.49-23.33,21.72-35a235.67,235.67,0,0,1,13.77-20.25,55,55,0,0,1,6.89-7.73,14.94,14.94,0,0,1,5.05-3.25,10.61,10.61,0,0,1,2.36-.53A4.2,4.2,0,0,1,374,278.8a10.23,10.23,0,0,1,.34,6.21,25.53,25.53,0,0,1-2.82,7.25,69.37,69.37,0,0,1-10.66,14.48,63.4,63.4,0,0,1-10.73,9.15,44.27,44.27,0,0,1-8.42,4.44c-1,.38-1,.37-1.79-.1l2.61-1.12a46.43,46.43,0,0,0,11.25-7,68.07,68.07,0,0,0,16-18.89,26.07,26.07,0,0,0,3.42-8.29,19.87,19.87,0,0,0,.2-4,4.48,4.48,0,0,0-.54-1.78,3.17,3.17,0,0,0-3.39-1.87,10.27,10.27,0,0,0-5.6,2.72,51.84,51.84,0,0,0-8,8.84A187,187,0,0,0,345,304.2q-4.65,7.41-9.27,14.83c-3.63,5.82-7.29,11.63-10.86,17.48a203.54,203.54,0,0,0-11.07,19.84c-1.85,4-3.44,8.08-5.07,12.16a64.38,64.38,0,0,0-2.13,6.23,30.77,30.77,0,0,0-1.41,10.35A8.17,8.17,0,0,0,306.9,390a4,4,0,0,0,2.48,1.47,9.55,9.55,0,0,0,6.83-1.41,21.38,21.38,0,0,0,5.24-5,50.49,50.49,0,0,0,9.61-17.91c1-3.39,2-6.8,2.73-10.26a69.11,69.11,0,0,0,1.39-16.18c-.1-3.05-.16-6.1-.29-9.14C334.82,330,334.64,328.53,334.5,326.86Z" transform="translate(-165.77 -227.1)"/><path class="cls-2" d="M373,322.32c3.31,2.89,7.06,2.5,10.81,1.32a18,18,0,0,0,10.46-9,8.88,8.88,0,0,0,.74-7.42,6.4,6.4,0,0,0-5.68-4.27c-3.38-.2-6.22,1.16-8.81,3.13a31.19,31.19,0,0,0-6.06,6.45,36.3,36.3,0,0,0-5.73,11.19,28.72,28.72,0,0,0-1.32,7.8,15.86,15.86,0,0,0,2.35,8.44,8.24,8.24,0,0,0,5.11,3.68,14.29,14.29,0,0,0,9-.61,45.14,45.14,0,0,0,13.8-7.94c2.26-1.84,4.43-3.79,6.62-5.72a1.55,1.55,0,0,0,.33-.94,32,32,0,0,1,12.09-21.76,13,13,0,0,1,7-2.85c4.27-.43,7.89,2.81,7.28,7.17a14.61,14.61,0,0,1-1.55,4.7,21.64,21.64,0,0,1-9.51,9.23,16.63,16.63,0,0,1-8.73,2.29c-.71,0-.71,0-1.5-.67a2.38,2.38,0,0,1,.73-.2,14.29,14.29,0,0,0,7.45-1.43A22.85,22.85,0,0,0,427.7,317a15.27,15.27,0,0,0,2.22-5.16c.89-4-1.58-7.08-5.7-7a11.7,11.7,0,0,0-6.18,2.06,24.47,24.47,0,0,0-5.84,5.51,32.46,32.46,0,0,0-6.3,13.4c-.84,3.89-.41,7.59,2.26,10.79a9.75,9.75,0,0,0,4.11,2.94,14.62,14.62,0,0,0,9.77,0,23.19,23.19,0,0,0,10-6.39A28.9,28.9,0,0,0,436.6,327a1,1,0,0,1,.72-.47,6.86,6.86,0,0,1-.28.91,26.3,26.3,0,0,1-7.85,9.59,19.84,19.84,0,0,1-9.74,4.26,16,16,0,0,1-6.8-.45,11.29,11.29,0,0,1-7.94-9.86c0-.21,0-.43-.1-.87-.43.39-.78.65-1.06,1a51.13,51.13,0,0,1-12,9.68A28.76,28.76,0,0,1,379,345.22c-3.92.28-7.45-.76-9.83-4.12a14.72,14.72,0,0,1-2.72-7.64,28.37,28.37,0,0,1,1.78-11.35,39.39,39.39,0,0,1,10-15.29,16.64,16.64,0,0,1,9.15-4.8c4.33-.67,8.94,2,9,7.54a12.82,12.82,0,0,1-2.83,8,18.75,18.75,0,0,1-13.52,7.9,9,9,0,0,1-6-1.14,5.24,5.24,0,0,1-1.2-1c-.15-.18-.09-.53-.12-.8Z" transform="translate(-165.77 -227.1)"/><path class="cls-2" d="M274.1,326.8c.66-.28,1.1-.44,1.52-.64a58,58,0,0,0,11.69-7.87c1.35-1.09,2.74-2.14,4.12-3.22.55.51.37.86,0,1.19-.9.82-1.74,1.69-2.7,2.44a76.51,76.51,0,0,1-10,7.06,37.65,37.65,0,0,1-4.49,2.14,3.45,3.45,0,0,0-1.88,1.59,45.82,45.82,0,0,1-7.82,10.23,34.1,34.1,0,0,1-13,8.59c-4.39,1.5-8.49,1-12-2.31a12.37,12.37,0,0,1-2.82-4.22,18.37,18.37,0,0,1-1.34-9.88,35.45,35.45,0,0,1,7.4-17.22,24.69,24.69,0,0,1,2.88-2.81,4.67,4.67,0,0,1,1.11-.43,5,5,0,0,1-.55.85,34.32,34.32,0,0,0-9.5,18.63,16.58,16.58,0,0,0,2.16,12.18,9.56,9.56,0,0,0,9.48,4.68,19.05,19.05,0,0,0,8.82-3.4A44.2,44.2,0,0,0,271,329.52a3.34,3.34,0,0,0,.21-.6c-1.11.1-2.12.22-3.13.28a13.88,13.88,0,0,1-13-6.36c-2.54-3.81-2.76-8.07-1.31-12.4a16.32,16.32,0,0,1,4.15-6.53,11.84,11.84,0,0,1,11.88-3.2c3.67,1,5.8,3.58,7,7.05,1.63,4.77,1.09,9.46-.59,14.09-.5,1.39-1.15,2.72-1.73,4.09C274.31,326.13,274.26,326.33,274.1,326.8Zm-6.67,1.33,3.85-.52a1.78,1.78,0,0,0,1.41-1.09,34.88,34.88,0,0,0,3.06-7.73,18.08,18.08,0,0,0-.54-11,9,9,0,0,0-4.08-5,10.26,10.26,0,0,0-11.77,1.46,14.93,14.93,0,0,0-5.18,10.56,11.66,11.66,0,0,0,3.43,9.17A13.19,13.19,0,0,0,267.43,328.13Z" transform="translate(-165.77 -227.1)"/></svg>